<svg version="1.2" xmlns="http://www.w3.org/2000/svg" viewBox="0 0 975 857" width="975" height="857">
	<style>
		.s0 { fill: #1abc9c } 
		.s1 { fill: #1abc9b } 
		.s2 { fill: #e4fe93 } 
		.s3 { fill: #0cb795 } 
		.s4 { fill: #1fbd9d } 
		.s5 { fill: #0cb897 } 
		.s6 { fill: #31c2a5 } 
		.s7 { fill: #26bfa0 } 
		.s8 { fill: #0cb998 } 
		.s9 { fill: #23bca0 } 
		.s10 { fill: #27bca0 } 
		.s11 { fill: #0fb896 } 
		.s12 { fill: #0bb795 } 
		.s13 { fill: #02af90 } 
		.s14 { fill: #0fb897 } 
		.s15 { fill: #0cb793 } 
		.s16 { fill: #0cb596 } 
		.s17 { fill: #46c9a1 } 
		.s18 { fill: #0cbda0 } 
		.s19 { fill: #07bb9a } 
		.s20 { fill: #1cc1a5 } 
		.s21 { fill: #0db697 } 
		.s22 { fill: #0eb496 } 
		.s23 { fill: #1dc3a9 } 
		.s24 { fill: #0db695 } 
		.s25 { fill: #10b496 } 
		.s26 { fill: #06b591 } 
		.s27 { fill: #11b997 } 
		.s28 { fill: #10b797 } 
		.s29 { fill: #0eb896 } 
		.s30 { fill: #21bfa4 } 
		.s31 { fill: #0dbfa1 } 
		.s32 { fill: #26bf9f } 
		.s33 { fill: #44c89e } 
		.s34 { fill: #29c0a0 } 
		.s35 { fill: #2bbf9f } 
		.s36 { fill: #04be91 } 
		.s37 { fill: #25bea0 } 
		.s38 { fill: #1ec3aa } 
		.s39 { fill: #27bba0 } 
		.s40 { fill: #08ba9b } 
	</style>
	<path class="s0" d="m558.88 13.24c2.46 0.88 3.67 1.93 5.51 3.78q0.96 0.95 1.94 1.92c1.02 1.03 1.02 1.03 2.06 2.09q1.05 1.05 2.14 2.13 2.23 2.23 4.44 4.48 3.42 3.44 6.85 6.86 2.16 2.17 4.32 4.34 1.03 1.02 2.08 2.08 0.94 0.95 1.91 1.93 0.83 0.84 1.68 1.7c1.19 1.45 1.19 1.45 1.19 3.45q0.8 0.32 1.63 0.65c3.23 1.84 5.65 4.36 8.24 6.99q0.83 0.83 1.69 1.69 1.76 1.77 3.52 3.54 2.67 2.69 5.35 5.37 1.72 1.73 3.44 3.46 0.78 0.78 1.59 1.59c3.24 3.28 6.27 6.68 9.21 10.22 1.59 1.78 3.41 3.09 5.33 4.49q0 0.99 0 2c0.96 0.4 0.96 0.4 1.94 0.81 2.06 1.19 2.06 1.19 3.06 4.19q1.98 1.04 4 2c1.85 1.59 1.85 1.59 3.76 3.5 1.08 1.07 1.08 1.07 2.18 2.16 1.15 1.16 1.15 1.16 2.33 2.34q1.18 1.18 2.4 2.4 2.51 2.51 5.01 5.02 3.85 3.86 7.72 7.71 2.43 2.43 4.87 4.87c1.16 1.16 1.16 1.16 2.34 2.34q1.06 1.06 2.15 2.16 0.94 0.94 1.9 1.91c1.34 1.59 1.34 1.59 1.34 3.59 0.96 0.4 0.96 0.4 1.94 0.81 2.06 1.19 2.06 1.19 3.06 4.19q1.98 1.04 4 2 2.01 1.76 3.89 3.67 1.13 1.12 2.28 2.27 1.2 1.21 2.43 2.46c1.24 1.25 1.24 1.25 2.51 2.53q3.98 4 7.95 8.01 2.68 2.69 5.36 5.39 5.91 5.93 11.8 11.88 1.73 1.74 3.52 3.4c1.26 1.39 1.26 1.39 1.26 3.39q0.82 0.33 1.67 0.68c3.03 1.72 5.27 4.04 7.69 6.52q0.76 0.77 1.54 1.55 2.43 2.47 4.85 4.94c9.81 9.99 9.81 9.99 20.25 19.31q1.2 1.03 2.44 2.08c7.17 5.85 14.79 10.93 22.56 15.92 1.35 0.87 1.35 0.87 2.73 1.76 8.73 5.43 18.15 9.54 27.73 13.24q2.43 0.96 4.84 1.97c9.61 4.02 19.53 5.93 29.7 8.03q1.31 0.28 2.66 0.56c19.84 4.09 39.58 4.11 59.75 4.18q6.72 0.03 13.44 0.1 13.07 0.11 26.15 0.16 0.1 54.93 0.15 109.86 0.01 6.49 0.01 12.97 0.01 1.28 0.01 2.6 0.02 20.91 0.06 41.82 0.04 21.45 0.05 42.89 0.01 13.24 0.04 26.48 0.03 9.07 0.02 18.14 0 5.24 0.02 10.48 0.02 5.67 0 11.35 0.01 1.65 0.03 3.36-0.01 1.5-0.02 3.06 0 1.3 0 2.65c-0.46 2.88-1.34 4.26-3.37 6.34-3.14 0.49-3.14 0.49-7.06 0.47q-1.07 0-2.17 0.01-3.57-0.01-7.13-0.05-2.51-0.01-5.01-0.01-5.27-0.02-10.55-0.06-6.65-0.06-13.31-0.07c-25.24-0.06-50.19-0.57-75.27-3.6q-1.39-0.17-2.82-0.34c-33.38-3.96-33.38-3.96-49.41-8.71-2.27-0.64-4.51-1.09-6.83-1.51-12.38-2.38-24.49-6.32-36.38-10.43q-2.37-0.8-4.74-1.57c-7.32-2.4-14.49-5.06-21.63-7.94q-1.62-0.65-3.29-1.32c-19.67-7.97-19.67-7.97-26.85-12.37-2.47-1.45-4.98-2.54-7.62-3.64-3.69-1.65-7.17-3.68-10.68-5.67q-2.4-1.35-4.81-2.7c-1.15-0.65-1.15-0.65-2.32-1.31q-3.95-2.19-7.93-4.3c-6.22-3.38-12.2-7.13-18.19-10.88q-1.61-0.98-3.27-2-1.5-0.92-3.04-1.87-1.35-0.83-2.74-1.68-0.96-0.72-1.95-1.45 0-0.98 0-2-1.02-0.34-2.07-0.7c-3.66-1.63-6.65-3.8-9.87-6.17q-1.79-1.31-3.59-2.62c-0.86-0.64-0.86-0.64-1.74-1.28-1.69-1.2-3.42-2.32-5.17-3.43q-1.26-0.88-2.56-1.8 0-0.98 0-2-1.97-0.49-4-1 0.49 0.49 1 1 1.57 1.69 3.13 3.39 2 2.15 3.99 4.3 0.98 1.05 1.98 2.14c3.62 3.89 7.32 7.49 11.4 10.89 1.81 1.55 3.4 3.21 4.94 5.03q0.73 0.85 1.49 1.73c1.07 1.52 1.07 1.52 1.07 3.52 0.96 0.4 0.96 0.4 1.94 0.81 2.06 1.19 2.06 1.19 3.06 4.19q1.98 1.04 4 2c4.02 3.54 7.64 7.51 11.06 11.63 2.49 2.98 5.23 5.37 8.21 7.83 2.31 2.06 4.23 4.34 6.18 6.73 2.06 2.4 4.3 4.59 6.55 6.81q4.69 4.65 9.37 9.31 1.24 1.22 2.5 2.48c4.37 4.34 8.58 8.74 12.55 13.46 2.33 2.58 4.98 4.74 7.63 6.99 1.89 1.71 3.5 3.47 5.13 5.41 4.07 4.71 8.45 9.05 12.88 13.41 4.76 4.68 9.37 9.34 13.65 14.46 1.69 1.94 3.56 3.59 5.54 5.23 2.48 2.06 3.93 3.52 5.75 6.25-0.26 3.83-2.44 5.99-4.94 8.75q-1.06 1.19-2.15 2.42c-1.91 1.83-1.91 1.83-3.91 1.83q-0.4 0.95-0.81 1.94c-1.19 2.06-1.19 2.06-4.19 3.06q-0.43 0.86-0.88 1.75c-1.49 2.99-3.75 4.95-6.12 7.25q-4.29 4.25-8.56 8.5-1.13 1.11-2.29 2.26c-3.02 3.01-5.91 5.93-8.55 9.27q-0.79 0.97-1.6 1.97-0.99 0-2 0-0.4 0.95-0.81 1.94c-1.19 2.06-1.19 2.06-4.19 3.06q-0.43 0.86-0.88 1.75c-1.51 3.04-3.68 4.88-6.12 7.25q-3.04 3-6.06 6-0.77 0.76-1.57 1.54c-2.38 2.37-4.54 4.68-6.62 7.34q-0.86 1.04-1.75 2.12-0.99 0-2 0-0.4 0.95-0.81 1.94c-1.19 2.06-1.19 2.06-4.19 3.06q-0.49 0.99-1 2-0.49 0.99-1 2-1.48 0.49-3 1-0.43 0.86-0.88 1.75c-1.51 3.04-3.68 4.88-6.12 7.25q-3.04 3-6.06 6-0.77 0.76-1.57 1.54c-2.38 2.37-4.54 4.68-6.62 7.34q-0.86 1.04-1.75 2.12-0.99 0-2 0-0.4 0.95-0.81 1.94c-1.19 2.06-1.19 2.06-4.19 3.06q-0.49 0.99-1 2-0.49 0.99-1 2-1.48 0.49-3 1c-1.21 2-1.21 2-2 4q-0.99 0-2 0-0.4 0.89-0.82 1.81c-1.17 2.17-2.31 3.54-4.08 5.25q-0.84 0.82-1.7 1.67c-0.88 0.84-0.88 0.84-1.78 1.71-3.15 3.05-6.19 6.01-8.91 9.47q-0.84 1.03-1.71 2.09-0.99 0-2 0-0.4 0.95-0.81 1.94c-1.19 2.06-1.19 2.06-4.19 3.06q-0.43 0.86-0.88 1.75c-1.51 3.04-3.69 4.88-6.12 7.25q-1.44 1.41-2.87 2.83-0.73 0.73-1.48 1.47c-4.6 4.57-9.06 9.13-13.15 14.18-1.68 1.71-3.36 2.47-5.5 3.52q-1.03 1.99-2 4-1.48 0.49-3 1-1.03 1.98-2 4c-1.48 1.42-1.48 1.42-3.19 2.75-3.26 2.7-5.96 5.6-8.71 8.82-2.75 3.19-5.57 6.31-8.41 9.43q-0.79 0.88-1.6 1.78c-1.32 1.45-2.7 2.84-4.09 4.22q-0.99 0-2 0c-0.4 0.96-0.4 0.96-0.81 1.94-1.19 2.06-1.19 2.06-4.19 3.06-1.21 2-1.21 2-2 4q-0.99 0-2 0-0.4 0.88-0.81 1.78c-2.02 3.76-5.08 6.52-8.07 9.53-0.93 0.99-0.93 0.99-1.89 2q-0.91 0.92-1.85 1.87-0.82 0.84-1.67 1.71c-1.71 1.11-1.71 1.11-3.86 0.97-0.92-0.42-0.92-0.42-1.85-0.86q-0.49-1.48-1-3-1.98-1.03-4-2c-1.5-1.52-1.5-1.52-3-3.37-6.51-7.69-13.72-14.87-21.5-21.28-2.21-1.99-4.02-4.28-5.91-6.57-2.24-2.5-4.76-4.6-7.37-6.71-1.97-1.84-3.68-3.71-5.44-5.75-3.9-4.52-8.05-8.74-12.28-12.94q-1.08-1.09-2.18-2.2c-3.8-3.79-7.65-7.42-11.8-10.83-1.66-1.48-3.05-3.07-4.46-4.79-2.66-3.23-5.59-5.86-8.84-8.49-1.97-1.84-3.68-3.71-5.44-5.75-3.9-4.52-8.05-8.74-12.28-12.94q-1.08-1.09-2.18-2.2c-3.8-3.79-7.64-7.42-11.79-10.82-1.69-1.5-3.1-3.12-4.53-4.86-1.99-2.42-4.02-4.45-6.44-6.44-2.46-2.03-4.55-4.12-6.6-6.56-4.26-4.93-8.83-9.53-13.45-14.12q-2.17-2.16-4.33-4.34c-4.69-4.69-9.42-9.27-14.51-13.54-2.29-2.05-4.22-4.34-6.15-6.73-2.05-2.39-4.29-4.55-6.52-6.77q-2.53-2.54-5.05-5.09-2.17-2.18-4.34-4.36-1.48-1.48-2.96-2.97c-6.63-6.73-6.63-6.73-13.65-13.04-2.36-2-4.28-3.83-6.19-6.23-2.07-2.52-4.16-4.38-6.81-6.31q0-0.98 0-2-0.95-0.4-1.94-0.81c-2.06-1.19-2.06-1.19-3.06-4.19q-0.87-0.43-1.76-0.88c-3.01-1.5-4.81-3.61-7.12-6.06-6.18-6.38-13.02-11.74-20.12-17.06q-1.47-1.11-2.98-2.26c-5.04-3.74-10.16-7.17-15.59-10.32q-2.33-1.36-4.61-2.81c-13.04-8.23-27.31-14.15-41.91-18.95-1.94-0.67-3.84-1.41-5.74-2.17-4.78-1.81-9.68-2.9-14.67-3.99q-1.43-0.32-2.91-0.65c-30.84-6.8-60.87-6.97-92.28-6.85q-9.26 0.04-18.52 0.06-3.68 0.01-7.36 0.03-2.24 0-4.47 0.01-1.94 0.01-3.94 0.01c-3.02-0.11-3.02-0.11-5.02-1.11q-0.14-65.99-0.2-131.98-0.01-7.79-0.02-15.57 0-1.54 0-3.13-0.03-25.12-0.09-50.24-0.05-25.76-0.07-51.52 0-15.91-0.05-31.81-0.03-10.9-0.02-21.8 0-6.29-0.03-12.58-0.03-5.76 0-11.52 0-2.08-0.02-4.17-0.02-2.83 0.01-5.66 0-1.57-0.01-3.18c0.63-3.57 2.02-5.25 4.5-7.84 3.19-1.37 6.5-1.1 9.93-1.05q1.81 0.02 3.66 0.04 1.97 0.03 4 0.06 2.09 0.03 4.18 0.06 6.8 0.09 13.6 0.2 2.35 0.04 4.7 0.08 16.47 0.26 32.93 0.61 1.02 0.02 2.07 0.04c34.44 0.72 69.2 1.59 102.92 9.31 2.93 0.63 5.84 1.08 8.82 1.46 9.89 1.45 19.57 4.06 29.26 6.47q3.77 0.93 7.54 1.83c7.98 1.92 15.81 4.18 23.62 6.69q4.84 1.53 9.71 2.95c6.63 2.04 13.15 4.36 19.68 6.69q1.57 0.55 3.18 1.12c6.06 2.19 11.94 4.59 17.76 7.32 2.37 1.09 4.76 2.06 7.19 3 10.22 4.03 20.04 8.91 29.7 14.14q6.18 3.33 12.49 6.42c20.9 10.38 41.45 22.58 60.22 36.46q4.89 3.59 9.84 7.1c9.13 6.51 18.2 13.05 27 20-3.61-4.69-7.7-8.69-11.95-12.79-2.05-2.21-2.05-2.21-2.05-4.21-0.83-0.35-0.83-0.35-1.69-0.7-2.93-1.65-4.96-3.71-7.34-6.1q-0.7-0.7-1.42-1.42-1.49-1.5-2.98-3-2.24-2.27-4.51-4.53c-7.59-7.63-7.59-7.63-10.76-11.47-1.92-2.33-3.73-4.14-6.05-6.03-3.96-3.38-7.32-7.1-10.75-11-3.3-3.63-6.77-7.05-10.26-10.49-3.12-3.09-6.02-6.27-8.8-9.67-2.36-2.61-5.08-4.79-7.8-7.01-1.64-1.58-1.64-1.58-2.64-4.58q-0.99-0.49-2-1c-2-1-2-1-3-4q-1.48-0.49-3-1c-1.79-1.71-1.79-1.71-3.63-3.81-0.91-1.03-0.91-1.03-1.85-2.08-2.49-3.46-2.49-3.46-2.52-6.11 1.8-2.36 1.8-2.36 4.31-4.75q1.23-1.19 2.49-2.42c2.2-1.83 2.2-1.83 4.2-1.83q0.13-0.88 0.25-1.78c0.97-2.86 2.35-3.89 4.69-5.78 2.59-2.12 4.18-3.62 6.06-6.44q0.98 0 2 0 0.39-0.88 0.8-1.79c1.26-2.32 2.58-3.8 4.47-5.64q0.96-0.94 1.94-1.91 1.01-0.97 2.04-1.97c4.35-4.24 8.51-8.51 12.42-13.17 1.71-1.95 3.58-3.62 5.58-5.27 2.48-2.06 3.93-3.52 5.75-6.25q0.98 0 2 0 0.39-0.88 0.8-1.79c1.26-2.32 2.58-3.8 4.47-5.64q0.96-0.94 1.94-1.91 1.01-0.97 2.04-1.97c4.36-4.25 8.53-8.52 12.44-13.19 1.61-1.84 3.35-3.4 5.25-4.94 3.33-2.84 6.12-5.86 8.95-9.19 3.29-3.69 6.83-7.11 10.34-10.58 2.99-2.96 5.86-5.95 8.58-9.16 2.82-3.33 5.93-6.06 9.24-8.87 2.53-2.28 4.64-4.8 6.84-7.39 2.75-3.08 5.67-5.97 8.61-8.87 4.15-4.11 8.19-8.23 11.94-12.72 2.08-2.37 4.32-4.57 6.56-6.78q4.69-4.65 9.37-9.31 1.24-1.22 2.5-2.48c4.39-4.36 8.61-8.78 12.6-13.51 1.57-1.74 3.22-3.21 5.03-4.7 3.36-2.76 6.12-5.85 8.92-9.17 0.78-0.9 0.78-0.9 1.58-1.83q0.72-0.89 1.45-1.8c1.55-1.2 1.55-1.2 3.43-0.96z"/>
	<path class="s1" d="m558.88 13.24c2.46 0.88 3.67 1.93 5.51 3.78 0.96 0.95 0.96 0.95 1.94 1.92q1.02 1.03 2.06 2.09 1.05 1.05 2.14 2.13 2.23 2.23 4.44 4.48 3.42 3.44 6.85 6.86 2.16 2.17 4.32 4.34 1.03 1.02 2.08 2.08 0.94 0.95 1.91 1.93 0.83 0.84 1.68 1.7c1.19 1.45 1.19 1.45 1.19 3.45q0.8 0.32 1.63 0.65c3.23 1.84 5.65 4.36 8.24 6.99q0.83 0.83 1.69 1.69 1.76 1.77 3.52 3.54 2.67 2.69 5.35 5.37 1.72 1.73 3.44 3.46 0.78 0.78 1.59 1.59c3.24 3.28 6.27 6.68 9.21 10.22 1.59 1.78 3.41 3.09 5.33 4.49q0 0.99 0 2 0.95 0.4 1.94 0.81c2.06 1.19 2.06 1.19 3.06 4.19q1.98 1.04 4 2c1.85 1.59 1.85 1.59 3.76 3.5q1.07 1.07 2.18 2.16 1.15 1.15 2.33 2.34 1.18 1.18 2.4 2.4 2.51 2.51 5.01 5.02 3.85 3.86 7.72 7.71 2.43 2.43 4.87 4.87c1.16 1.16 1.16 1.16 2.34 2.34q1.06 1.06 2.15 2.16 0.94 0.94 1.9 1.91c1.34 1.59 1.34 1.59 1.34 3.59q0.95 0.4 1.94 0.81c2.06 1.19 2.06 1.19 3.06 4.19q1.98 1.04 4 2 2.01 1.76 3.89 3.67 1.13 1.12 2.28 2.27 1.2 1.21 2.43 2.46c1.24 1.25 1.24 1.25 2.51 2.53q3.98 4 7.95 8.01 2.68 2.69 5.36 5.39 5.91 5.93 11.8 11.88 1.73 1.74 3.52 3.4c1.26 1.39 1.26 1.39 1.26 3.39q0.82 0.33 1.67 0.68c3.03 1.72 5.27 4.04 7.69 6.52q0.76 0.77 1.54 1.55 2.43 2.47 4.85 4.94c9.81 9.99 9.81 9.99 20.25 19.31q1.2 1.03 2.44 2.08c7.17 5.85 14.79 10.93 22.56 15.92 1.35 0.87 1.35 0.87 2.73 1.76 8.73 5.43 18.15 9.54 27.73 13.24q2.43 0.96 4.84 1.97c9.61 4.02 19.53 5.93 29.7 8.03q1.31 0.28 2.66 0.56c19.84 4.09 39.58 4.11 59.75 4.18q6.72 0.03 13.44 0.1 13.07 0.11 26.15 0.16 0.1 54.93 0.15 109.86 0.01 6.49 0.01 12.97 0.01 1.28 0.01 2.6 0.02 20.91 0.06 41.82 0.04 21.45 0.05 42.89 0.01 13.24 0.04 26.48 0.03 9.07 0.02 18.14 0 5.24 0.02 10.48 0.02 5.67 0 11.35 0.01 1.65 0.03 3.36-0.01 1.5-0.02 3.06 0 1.3 0 2.65c-0.46 2.88-1.34 4.26-3.37 6.34-3.14 0.49-3.14 0.49-7.06 0.47q-1.07 0-2.17 0.01-3.57-0.01-7.13-0.05-2.51-0.01-5.01-0.01-5.27-0.02-10.55-0.06-6.65-0.06-13.31-0.07c-25.24-0.06-50.19-0.57-75.27-3.6q-1.39-0.17-2.82-0.34c-33.38-3.96-33.38-3.96-49.41-8.71-2.27-0.64-4.51-1.09-6.83-1.51-12.38-2.38-24.49-6.32-36.38-10.43q-2.37-0.8-4.74-1.57c-7.32-2.4-14.49-5.06-21.63-7.94q-1.62-0.65-3.29-1.32c-19.67-7.97-19.67-7.97-26.85-12.37-2.47-1.45-4.98-2.54-7.62-3.64-3.69-1.65-7.17-3.68-10.68-5.67q-2.4-1.35-4.81-2.7c-1.15-0.65-1.15-0.65-2.32-1.31q-3.95-2.19-7.93-4.3c-6.22-3.38-12.2-7.13-18.19-10.88q-1.61-0.98-3.27-2-1.5-0.92-3.04-1.87-1.35-0.83-2.74-1.68-0.96-0.72-1.95-1.45 0-0.98 0-2-1.02-0.34-2.07-0.7c-3.66-1.63-6.65-3.8-9.87-6.17q-1.79-1.31-3.59-2.62c-0.86-0.64-0.86-0.64-1.74-1.28-1.69-1.2-3.42-2.32-5.17-3.43q-1.26-0.88-2.56-1.8 0-0.98 0-2-1.11-0.37-2.25-0.75c-2.98-1.35-4.65-2.76-6.75-5.25q0-0.98 0-2c-2.64-2.4-5.38-4.25-8.5-5.94-3.41-1.91-6.06-3.94-8.5-7.06 0.22-4.41 1.91-6.36 5.06-9.31q1.1-1.04 2.23-2.12 0.84-0.77 1.71-1.57-0.67 0.58-1.36 1.17-0.9 0.78-1.83 1.58-0.96 0.83-1.95 1.68-2.13 1.78-4.36 3.45c-3.58 3.04-6.49 6.52-9.5 10.12-0.91 1.06-0.91 1.06-1.84 2.14-10.08 12.1-17.88 25.7-25.1 39.64q-0.71 1.33-1.43 2.71-0.62 1.19-1.25 2.42c-1.54 2.33-3.01 3.62-5.38 5.09-2.25 0.18-2.25 0.18-4.56-0.12q-1.14-0.13-2.32-0.26c-2.61-0.76-3.46-1.47-5.12-3.62q-1.57-3.03-3-6.12c-4.24-8.79-9.48-16.85-15-24.88q-0.58-0.85-1.18-1.73c-15.03-21.64-36.03-38.46-58.82-51.27q-1.49-0.86-3.03-1.74c-4.37-2.47-8.62-4.56-13.35-6.26-4.76-1.84-7.01-3.56-9.62-8-0.63-3.56-0.63-3.56 0-7 3.62-4.32 7.44-6.5 12.44-8.81q2.15-1.05 4.3-2.1 1.07-0.52 2.17-1.05c15.5-7.68 29.85-18.15 41.73-30.79 1.36-1.25 1.36-1.25 3.36-1.25q0-0.98 0-2-1.48-0.26-3-0.53c-5.19-1.49-8.31-5.16-11.94-8.97q-1.02-1.03-2.07-2.09c-4.99-5.11-4.99-5.11-4.99-7.41q-0.83-0.34-1.69-0.7c-2.93-1.65-4.96-3.71-7.34-6.1q-0.7-0.7-1.42-1.42-1.49-1.5-2.98-3-2.24-2.27-4.51-4.53c-7.59-7.63-7.59-7.63-10.76-11.47-1.92-2.33-3.73-4.14-6.05-6.03-3.96-3.38-7.32-7.1-10.75-11-3.3-3.63-6.77-7.05-10.26-10.49-3.12-3.09-6.02-6.27-8.8-9.67-2.36-2.61-5.08-4.79-7.8-7.01-1.64-1.58-1.64-1.58-2.64-4.58q-0.99-0.49-2-1c-2-1-2-1-3-4q-1.48-0.49-3-1c-1.79-1.71-1.79-1.71-3.63-3.81q-0.91-1.03-1.85-2.08c-2.49-3.46-2.49-3.46-2.52-6.11 1.8-2.36 1.8-2.36 4.31-4.75 1.23-1.2 1.23-1.2 2.49-2.42 2.2-1.83 2.2-1.83 4.2-1.83q0.13-0.88 0.25-1.78c0.97-2.86 2.35-3.89 4.69-5.78 2.59-2.12 4.18-3.62 6.06-6.44q0.98 0 2 0 0.39-0.88 0.8-1.79c1.26-2.32 2.58-3.8 4.47-5.64q0.96-0.94 1.94-1.91 1.01-0.97 2.04-1.97c4.35-4.24 8.51-8.51 12.42-13.17 1.71-1.95 3.58-3.62 5.58-5.27 2.48-2.06 3.93-3.52 5.75-6.25q0.98 0 2 0 0.39-0.88 0.8-1.79c1.26-2.32 2.58-3.8 4.47-5.64q0.96-0.94 1.94-1.91 1.01-0.97 2.04-1.97c4.36-4.25 8.53-8.52 12.44-13.19 1.61-1.84 3.35-3.4 5.25-4.94 3.33-2.84 6.12-5.86 8.95-9.19 3.29-3.69 6.83-7.11 10.34-10.58 2.99-2.96 5.86-5.95 8.58-9.16 2.82-3.33 5.93-6.06 9.24-8.87 2.53-2.28 4.64-4.8 6.84-7.39 2.75-3.08 5.67-5.97 8.61-8.87 4.15-4.11 8.19-8.23 11.94-12.72 2.08-2.37 4.32-4.57 6.56-6.78q4.69-4.65 9.37-9.31 1.24-1.22 2.5-2.48c4.39-4.36 8.61-8.78 12.6-13.51 1.57-1.74 3.22-3.21 5.03-4.7 3.36-2.76 6.12-5.85 8.92-9.17q0.78-0.9 1.58-1.83 0.72-0.89 1.45-1.8c1.55-1.2 1.55-1.2 3.43-0.96z"/>
	<path class="s2" d="m520 269c6.04 3.08 7.75 6.8 10.25 12.75 17.86 39.94 48.51 67.7 86.64 87.77q1.19 0.64 2.42 1.29 0.98 0.5 1.99 1.02c2.13 1.47 3.33 2.98 4.7 5.17 0.48 3.8 0.55 6.07-1.42 9.41-3.61 3.62-7.7 5.44-12.27 7.65-15.33 7.74-28.43 17.66-41.31 28.94q-1.94 1.6-3.87 3.19c-3.78 3.26-6.95 6.98-10.13 10.81q-0.9 1.05-1.83 2.14c-10.08 12.09-17.89 25.7-25.11 39.64q-0.71 1.33-1.43 2.71-0.62 1.19-1.25 2.42c-1.54 2.33-3.01 3.62-5.38 5.09-2.25 0.18-2.25 0.18-4.56-0.12-1.15-0.13-1.15-0.13-2.32-0.26-2.61-0.76-3.46-1.47-5.12-3.62q-1.57-3.03-3-6.12c-4.24-8.79-9.48-16.85-15-24.88q-0.58-0.85-1.18-1.73c-15.03-21.64-36.03-38.46-58.82-51.27-1.5-0.86-1.5-0.86-3.03-1.74-4.37-2.47-8.62-4.56-13.34-6.26-4.77-1.84-7.02-3.56-9.63-8-0.62-3.56-0.62-3.56 0-7 3.62-4.32 7.44-6.5 12.44-8.81q2.15-1.05 4.3-2.1 1.07-0.52 2.17-1.05c15.5-7.68 29.85-18.15 41.73-30.79 1.36-1.25 1.36-1.25 3.36-1.25q0.34-0.82 0.69-1.67c1.69-3 3.85-5.12 6.25-7.58 12.7-13.49 24.4-30.92 30.15-48.57 2.34-5.6 6.84-8.32 12.91-7.18z"/>
	<path class="s3" d="m17 206c0 112.86 0 225.72 0 342 29.04 0 58.08 0 88 0 23.89 3.08 45.73 6.6 68 15q-0.49 0.99-1 2-1.83-0.65-3.71-1.31c-5.87-1.95-11.83-3.33-17.85-4.69q-1.71-0.39-3.47-0.79c-31.32-7.08-61.73-7.33-93.66-7.21q-9.26 0.04-18.52 0.06-3.68 0.01-7.36 0.03-2.24 0-4.47 0.01c-1.95 0.01-1.95 0.01-3.94 0.01-3.02-0.11-3.02-0.11-5.02-1.11 0-113.19 0-226.38 0-343 2-1 2-1 3-1z"/>
	<path class="s4" d="m28.69 197.96c1 0.01 1 0.01 2.01 0.03q3.29 0.04 6.57 0.1 2.29 0.03 4.58 0.06 4.8 0.07 9.6 0.15 6.14 0.09 12.28 0.17 4.73 0.07 9.46 0.14 2.26 0.04 4.52 0.07 3.17 0.04 6.34 0.1 1.79 0.03 3.64 0.06c3.17 0.15 6.19 0.57 9.31 1.16-3.65 2.31-6.74 2.24-11 2.21-1.04 0-1.04 0-2.11 0q-3.45-0.02-6.89-0.05-2.4-0.01-4.8-0.02-6.31-0.02-12.62-0.06-10.1-0.06-20.2-0.1-3.53-0.01-7.05-0.04-2.17-0.01-4.33-0.02c-1.89-0.01-1.89-0.01-3.81-0.03-3.36 0-3.36 0-7.19 1.11-0.33 113.85-0.66 227.7-1 345q-0.49 0-1 0-0.33-65.61-0.59-131.22-0.03-7.74-0.06-15.48 0-1.53-0.01-3.11-0.1-24.97-0.23-49.95-0.13-25.61-0.22-51.22-0.05-15.81-0.14-31.63-0.07-10.83-0.09-21.66-0.01-6.26-0.06-12.52-0.04-5.72-0.04-11.45 0-2.07-0.03-4.14-0.02-2.82-0.01-5.63 0-1.56-0.01-3.16c0.62-3.57 2.01-5.25 4.49-7.83 3.37-1.49 7.06-1.09 10.69-1.04z"/>
	<path class="s5" d="m847 552c12.02-0.06 24.02 0.06 36.04 0.43 22.99 0.69 45.96 0.67 68.96 0.57 0.49 1.49 0.49 1.49 1 3q-14.49 0.04-28.98 0.05-6.73 0.01-13.46 0.03c-49.65 0.12-49.65 0.12-63.56-2.08q0-0.99 0-2z"/>
	<path class="s6" d="m28.69 197.96c1 0.01 1 0.01 2.01 0.03q3.29 0.04 6.57 0.1 2.29 0.03 4.58 0.06 4.8 0.07 9.6 0.15 6.14 0.09 12.28 0.17 4.73 0.07 9.46 0.14 2.26 0.04 4.52 0.07 3.17 0.04 6.34 0.1 1.79 0.03 3.64 0.06c3.17 0.15 6.19 0.57 9.31 1.16-3.65 2.31-6.74 2.24-11 2.21-1.04 0-1.04 0-2.11 0q-3.45-0.02-6.89-0.05-2.4-0.01-4.8-0.02-6.31-0.02-12.62-0.06-10.1-0.06-20.2-0.1-3.53-0.01-7.05-0.04-2.17-0.01-4.33-0.02c-1.89-0.01-1.89-0.01-3.81-0.03-2.62 0.09-4.71 0.33-7.19 1.11q-0.49 1.97-1 4-0.98 0-2 0c0.36-2.69 0.67-4.56 2.31-6.75 3.73-2.76 7.9-2.35 12.38-2.29z"/>
	<path class="s7" d="m954 453q0.49 0 1 0 0.23 19.31 0.44 38.62 0.1 8.97 0.21 17.93 0.1 8.65 0.19 17.29 0.04 3.31 0.08 6.61 0.06 4.62 0.1 9.24c0.02 1.37 0.02 1.37 0.04 2.78 0.05 6.3 0.05 6.3-1.06 8.53q-0.99 0-2 0c0.33-33.33 0.66-66.66 1-101z"/>
	<path class="s8" d="m652 491c4.03 1.52 7.8 3.38 11.62 5.37 0.93 0.49 0.93 0.49 1.89 0.98q2.96 1.54 5.93 3.09 2.96 1.54 5.92 3.07 2.69 1.4 5.38 2.8 4.61 2.38 9.26 4.69-0.99 0.99-2 2-1.17-0.59-2.38-1.21-1.57-0.79-3.18-1.6-1.54-0.78-3.13-1.58-3.27-1.59-6.63-3c-4.51-1.9-8.77-4.25-13.05-6.61q-1.23-0.65-2.49-1.33-1.16-0.64-2.35-1.29-1.05-0.58-2.14-1.17c-1.65-1.21-1.65-1.21-2.65-4.21z"/>
	<path class="s9" d="m474 98q1.48 0.49 3 1c-3.5 4.17-6.98 8.31-11 12q-0.99 0-2 0-0.32 0.81-0.65 1.64c-1.83 3.2-4.35 5.57-6.97 8.11q-0.77 0.76-1.57 1.54-1.9 1.86-3.81 3.71-0.49-1.48-1-3 0.71-0.71 1.45-1.43 3.31-3.28 6.61-6.57 1.13-1.11 2.28-2.25c4.77-4.75 9.31-9.62 13.66-14.75z"/>
	<path class="s10" d="m533 38q0.99 0.98 2 2-1.06 1.04-2.15 2.12-1.37 1.36-2.79 2.75-1.37 1.36-2.77 2.75c-2.3 2.16-2.3 2.16-3.29 4.38q-0.99 0-2 0 0 0.98 0 2-0.99 0-2 0-0.34 0.86-0.69 1.75c-1.64 2.82-3.71 4.33-6.31 6.25 0.48-4.55 2.01-6.49 5.25-9.64 1.28-1.27 1.28-1.27 2.59-2.55q1.34-1.29 2.72-2.62 1.35-1.32 2.73-2.68 3.34-3.27 6.71-6.51z"/>
	<path class="s11" d="m329 687c5.62 4.67 10.8 9.68 15.94 14.88q1.16 1.16 2.36 2.37 2.85 2.87 5.7 5.75-1.48 0.49-3 1c-7.26-7.26-14.52-14.52-22-22q0.49-0.99 1-2z"/>
	<path class="s12" d="m808 547c9.45 0.5 18.66 1.38 28 3q0 0.49 0 1c-5.62 1.05-10.59 0.9-16.25 0.25q-1.2-0.11-2.43-0.23-1.15-0.12-2.34-0.25-1.03-0.12-2.1-0.23c-2.31-0.66-3.33-1.74-4.88-3.54z"/>
	<path class="s13" d="m864 553q6.69-0.12 13.38-0.19 1.89-0.04 3.85-0.07 1.8-0.02 3.67-0.03 1.67-0.03 3.39-0.05 1.34 0.17 2.71 0.34 0.99 1.48 2 3c-4.62 0-9.24 0-14 0q0-0.99 0-2c-4.95 0-9.9 0-15 0q0-0.49 0-1z"/>
	<path class="s14" d="m289 647c6.03 4.98 11.52 10.42 17 16q-1.48 0.49-3 1-3.51-3.39-7-6.81-1-0.96-2.02-1.95-0.95-0.93-1.92-1.88-0.87-0.86-1.77-1.73c-1.29-1.63-1.29-1.63-1.29-4.63z"/>
	<path class="s15" d="m241 602c3.48 1.52 5.96 3.58 8.75 6.13 1.2 1.08 1.2 1.08 2.42 2.19q0.9 0.83 1.83 1.68-0.49 1.48-1 3-2.41-2.15-4.81-4.31-1.34-1.2-2.71-2.43c-1.88-1.71-3.71-3.44-5.48-5.26q0.49-0.49 1-1z"/>
	<path class="s16" d="m383 246c3.12 1.36 4.93 2.79 7.06 5.44 1.89 2.31 3.8 4.48 5.94 6.56q-1.48 0.49-3 1-0.7-0.83-1.43-1.68-0.92-1.08-1.88-2.2-0.92-1.07-1.87-2.17c-1.86-2.14-1.86-2.14-4.82-3.95q0-1.48 0-3z"/>
	<path class="s17" d="m575 418q0.99 0.49 2 1-0.99 0.87-2 1.76-1.26 1.16-2.56 2.37-1.27 1.14-2.57 2.32c-2.23 2.47-2.23 2.47-1.65 5.85q0.39 1.33 0.78 2.7-3-1.5-6-3c1.13-3.4 2.17-4.24 4.88-6.5 2.47-2.09 4.86-4.17 7.12-6.5z"/>
	<path class="s18" d="m229 593c4.84 1.47 8.56 4.35 12 8q0 0.99 0 2c-3.99-1.33-6.1-3.01-9-6-2.13-1.24-2.13-1.24-4-2q0.49-0.99 1-2z"/>
	<path class="s19" d="m138.81 552.94q1.46 0.29 2.96 0.59c1.1 0.23 1.1 0.23 2.23 0.47q-0.49 1.48-1 3c-4.95-0.99-9.9-1.98-15-3q0-0.49 0-1c3.94-1.03 6.84-0.88 10.81-0.06z"/>
	<path class="s20" d="m512 60q0.49 0.98 1 2-1.64 2.01-3.31 4c-0.92 1.11-0.92 1.11-1.87 2.25-1.82 1.75-1.82 1.75-4.82 1.75 1.38-3.21 2.92-5.05 5.63-7.25q0.94-0.78 1.91-1.58c0.72-0.58 0.72-0.58 1.46-1.17z"/>
	<path class="s21" d="m768 538q2.66 0.47 5.31 0.94c1.48 0.26 1.48 0.26 2.99 0.52 2.7 0.54 2.7 0.54 5.7 1.54q0 0.99 0 2-2.66-0.13-5.31-0.31-1.47-0.09-2.99-0.18c-2.95-0.56-3.92-1.15-5.7-3.51q0-0.49 0-1z"/>
	<path class="s22" d="m601 458c3.04 1.41 5.59 3.09 8.25 5.13q1.05 0.8 2.14 1.63 0.79 0.61 1.61 1.24-0.99 0.99-2 2-2.51-1.64-5-3.31c-1.39-0.92-1.39-0.92-2.81-1.87q-1.08-0.89-2.19-1.82 0-1.48 0-3z"/>
	<path class="s23" d="m540 30q1.48 0.49 3 1-1.4 1.73-2.81 3.44c-0.79 0.95-0.79 0.95-1.58 1.93-1.61 1.63-1.61 1.63-4.61 2.63 0.47-4.25 2.97-6.2 6-9z"/>
	<path class="s24" d="m182 567c10.74 2.71 10.74 2.71 14 7-5.35-0.53-9.36-2.47-14-5q0-0.99 0-2z"/>
	<path class="s25" d="m439 797c7.48 6.15 7.48 6.15 10 10-2.65-0.15-4.44-0.5-6.45-2.3-3.55-4.1-3.55-4.1-3.55-7.7z"/>
	<path class="s26" d="m859 260q0 0.99 0 2 1.97 0.49 4 1c-5.42 0.23-9.77-0.53-15-2 4.18-2.79 6.15-1.8 11-1z"/>
	<path class="s27" d="m388 748c3.63 0.57 5.26 1.92 7.75 4.56q0.92 0.96 1.86 1.94 0.68 0.74 1.39 1.5-1.48 0.49-3 1-2-1.96-4-3.94-1.11-1.09-2.25-2.21c-1.75-1.85-1.75-1.85-1.75-2.85z"/>
	<path class="s28" d="m427 305c3.63 2.31 7.26 4.62 11 7q-0.99 0.99-2 2-0.99-0.49-2-1 0-0.99 0-2-0.86-0.12-1.75-0.25c-2.87-0.96-4.25-2.53-6.25-4.75q0.49-0.49 1-1z"/>
	<path class="s29" d="m397 260q1.69 1.4 3.38 2.81 0.93 0.78 1.89 1.58c1.73 1.61 1.73 1.61 3.73 4.61-3 0-3 0-4.61-1.21q-0.77-0.79-1.58-1.6c-0.79-0.79-0.79-0.79-1.6-1.58-1.21-1.61-1.21-1.61-1.21-4.61z"/>
	<path class="s30" d="m666 671c0 3.91-1.51 5.12-4 8q-1.97-0.49-4-1c2.64-2.31 5.28-4.62 8-7z"/>
	<path class="s31" d="m173 563c2.97 0.99 5.94 1.98 9 3q0 1.48 0 3c-3.91-1.16-6.87-2.36-10-5q0.49-0.49 1-1z"/>
	<path class="s32" d="m567 434c4.4 0.51 6.87 3.08 10 6q0 0.99 0 2c-5.01-1.43-6.94-3.98-10-8z"/>
	<path class="s33" d="m464 330c2.17 0.51 4 1 6 2q0 0.99 0 2-0.99 0-2 0-0.49 1.48-1 3c-3-3.63-3-3.63-3-7z"/>
	<path class="s34" d="m285 233c4.22-0.2 7.17 0.2 11 2q-0.49 0.99-1 2c-3.56-0.61-6.68-1.58-10-3q0-0.49 0-1z"/>
	<path class="s35" d="m557 13q0.49 1.48 1 3c-2.31 1.98-4.62 3.96-7 6 1.31-3.94 2.92-6.23 6-9z"/>
	<path class="s36" d="m886 553c2.5-0.38 2.5-0.38 5 0q0.99 1.48 2 3c-2.97 0-5.94 0-9 0q0.99-1.48 2-3z"/>
	<path class="s37" d="m568 771q0.99 0 2 0c-1.29 2.88-2.66 4.87-5 7q-1.48-0.49-3-1 3-3 6-6z"/>
	<path class="s38" d="m474 98q1.48 0.49 3 1c-1.32 1.65-2.64 3.3-4 5q-1.48-0.49-3-1c1.32-1.65 2.64-3.3 4-5z"/>
	<path class="s39" d="m548 23q0.99 0.49 2 1c-2.58 2.65-4.92 4.94-8 7 1.27-3.91 2.51-5.79 6-8z"/>
	<path class="s40" d="m593 452c3.47 1.98 3.47 1.98 7 4q-0.99 0.99-2 2c-2.5-1.31-2.5-1.31-5-3q0-1.48 0-3z"/>
</svg>