<svg version="1.2" xmlns="http://www.w3.org/2000/svg" viewBox="0 0 1248 688" width="1248" height="688">
	<style>
		.s0 { fill: #2c3e50 } 
		.s1 { fill: #1abc9c } 
		.s2 { fill: #2c3d50 } 
		.s3 { fill: #19bb9b } 
		.s4 { fill: #1abb9b } 
		.s5 { fill: #1abb9c } 
		.s6 { fill: #2b3d4f } 
		.s7 { fill: #3b4c5c } 
		.s8 { fill: #27bfa1 } 
		.s9 { fill: #3b535f } 
		.s10 { fill: #3b5963 } 
		.s11 { fill: #33c1a5 } 
		.s12 { fill: #334355 } 
		.s13 { fill: #2fc1a4 } 
		.s14 { fill: #4a5a68 } 
		.s15 { fill: #29bfa1 } 
		.s16 { fill: #2ebfa4 } 
		.s17 { fill: #1fa98e } 
		.s18 { fill: #33c0a4 } 
		.s19 { fill: #2ac0a2 } 
		.s20 { fill: #2bbfa1 } 
		.s21 { fill: #334d4d } 
		.s22 { fill: #36c3a8 } 
		.s23 { fill: #2ec1a5 } 
		.s24 { fill: #2dc1a7 } 
		.s25 { fill: #2fc2a4 } 
		.s26 { fill: #32c3a7 } 
		.s27 { fill: #203245 } 
		.s28 { fill: #3d4d5d } 
		.s29 { fill: #344f5b } 
		.s30 { fill: #3b4b5b } 
		.s31 { fill: #27c6ac } 
		.s32 { fill: #2bc0a4 } 
		.s33 { fill: #374958 } 
		.s34 { fill: #28bfa3 } 
		.s35 { fill: #2ac4a7 } 
		.s36 { fill: #3b5263 } 
		.s37 { fill: #31c3a6 } 
		.s38 { fill: #27c1a5 } 
		.s39 { fill: #09b594 } 
		.s40 { fill: #2cc2a5 } 
		.s41 { fill: #253748 } 
		.s42 { fill: #326c6f } 
		.s43 { fill: #29c1a4 } 
		.s44 { fill: #2dbfa1 } 
		.s45 { fill: #30c1a6 } 
		.s46 { fill: #32c0a4 } 
		.s47 { fill: #384958 } 
		.s48 { fill: #20364d } 
		.s49 { fill: #203247 } 
		.s50 { fill: #384658 } 
		.s51 { fill: #27c2a4 } 
		.s52 { fill: #24b59d } 
		.s53 { fill: #2abea2 } 
		.s54 { fill: #314555 } 
		.s55 { fill: #26c0a2 } 
		.s56 { fill: #374655 } 
		.s57 { fill: #2ac0a5 } 
		.s58 { fill: #29bea3 } 
		.s59 { fill: #374857 } 
		.s60 { fill: #334859 } 
		.s61 { fill: #0dba99 } 
		.s62 { fill: #334453 } 
		.s63 { fill: #21344f } 
		.s64 { fill: #384858 } 
		.s65 { fill: #15af92 } 
		.s66 { fill: #39495c } 
		.s67 { fill: #3c4f61 } 
		.s68 { fill: #2e5663 } 
		.s69 { fill: #0db796 } 
		.s70 { fill: #2bbda1 } 
		.s71 { fill: #354658 } 
		.s72 { fill: #2ac0a1 } 
		.s73 { fill: #29be9f } 
		.s74 { fill: #28c0a0 } 
		.s75 { fill: #2bbea4 } 
		.s76 { fill: #324357 } 
		.s77 { fill: #2b6d66 } 
		.s78 { fill: #0cb99a } 
		.s79 { fill: #36495c } 
		.s80 { fill: #33c7ab } 
		.s81 { fill: #334555 } 
		.s82 { fill: #1f3046 } 
		.s83 { fill: #28bda2 } 
		.s84 { fill: #283746 } 
		.s85 { fill: #324254 } 
		.s86 { fill: #24bfa4 } 
		.s87 { fill: #32485a } 
		.s88 { fill: #314857 } 
		.s89 { fill: #1e9e88 } 
		.s90 { fill: #29c0a2 } 
		.s91 { fill: #324454 } 
		.s92 { fill: #28525c } 
		.s93 { fill: #203646 } 
		.s94 { fill: #3cc9ae } 
		.s95 { fill: #1f2f3e } 
		.s96 { fill: #0bb494 } 
		.s97 { fill: #35c6ae } 
		.s98 { fill: #39485a } 
		.s99 { fill: #23354d } 
		.s100 { fill: #3c4a59 } 
		.s101 { fill: #2ec7a9 } 
		.s102 { fill: #2ac8ae } 
		.s103 { fill: #32505e } 
		.s104 { fill: #0eb498 } 
		.s105 { fill: #202f4f } 
		.s106 { fill: #354b59 } 
		.s107 { fill: #2abfa1 } 
		.s108 { fill: #28bda0 } 
	</style>
	<path class="s0" d="m426.32 168.86c1.14 0.01 1.14 0.01 2.31 0.01q1.19 0 2.41 0 3.98-0.01 7.96 0 2.75 0 5.5-0.01 5.78 0 11.55 0.01 7.42 0.01 14.85 0 5.68-0.01 11.37 0 2.73 0 5.47-0.01 3.82 0 7.64 0.01 1.13 0 2.3-0.01c5.21 0.03 5.21 0.03 6.32 1.14q0.13 2.39 0.12 4.79 0.01 1.56 0.01 3.17-0.01 1.73-0.01 3.51 0 1.82 0 3.7 0 5.1 0 10.21-0.01 5.58-0.01 11.16 0 10.85-0.01 21.7-0.01 12.53-0.01 25.07-0.01 33.13-0.03 66.25c-0.02 49.32-0.04 98.63-0.06 149.44 152.46-0.5 152.46-0.5 308-1-12.73-14.55-24.59-27.43-45-29-5.25-0.28-10.51-0.44-15.77-0.61q-1.56-0.05-3.16-0.11-1.42-0.04-2.88-0.09c-2.19-0.19-2.19-0.19-3.19-1.19q-0.14-3.82-0.11-7.64 0-1.19 0-2.42 0-3.99 0.01-7.98 0.01-2.75 0.01-5.51 0-7.26 0.02-14.53 0.02-7.41 0.02-14.82 0.02-14.55 0.05-29.1c2.49-1.24 4.17-1.13 6.95-1.13q1.5-0.01 3.05-0.01 8 0.03 16 0.14c1.96 0.03 1.96 0.03 3.96 0.05 19.07 0.81 38.11 7.11 54.58 16.56 2.77 1.56 5.61 2.97 8.46 4.39-4.56-5.46-9.15-10.27-14.85-14.55-8.72-6.88-16.88-13.84-18.79-25.29-1.24-10.57-0.72-21.22-0.17-31.82 0.16-3.71 0.23-7.43 0.29-11.14 0.54-32.69 5.74-57.74 26.52-84.2q1.01-1.3 2.04-2.64c1.76-2.12 3.5-3.89 5.59-5.67q0.88-0.77 1.78-1.55c1.59-1.14 1.59-1.14 3.59-1.14q0-0.99 0-2c21.92-17.55 46.48-26.24 74.5-26.13q1.43 0 2.89-0.01c11.87 0.02 22.3 1.46 33.61 5.14q1.57 0.5 3.18 1.02c18.9 6.66 34.11 18.66 47.82 32.98q0.84 0.75 1.71 1.53c1.29 1.47 1.29 1.47 1.29 4.47q1.48 0.49 3 1c10.06 11.16 14.97 27.86 19 42q0.49 1.48 1 3c2.69 26.87 2 53.99 2 81-42.57 0.33-85.14 0.66-129 1 17.85 18.44 17.85 18.44 41.39 25.28q1.52 0.06 3.09 0.11 3.23 0.11 6.45 0.22c1.53 0.05 1.53 0.05 3.08 0.11q1.39 0.04 2.83 0.09c2.16 0.19 2.16 0.19 3.16 1.19q0.13 3.22 0.11 6.45 0 1 0 2.04 0 3.35-0.01 6.7-0.01 2.32-0.01 4.64 0 6.11-0.02 12.22-0.02 6.24-0.02 12.47-0.02 12.24-0.05 24.48c-14.43 2.15-29.97 1.05-44-3q-1.82-0.52-3.69-1.06c-8.96-2.79-17.04-6.52-25.31-10.94q-0.49 0.49-1 1 0.65 0.63 1.32 1.29c3.08 3.03 6.04 6.07 8.81 9.4 2.37 2.83 4.91 5.07 7.87 7.31 1.81 1.62 1.81 1.62 3 3q0 0.98 0 2 1.48 0.49 3 1 0 0.98 0 2 1.48 0.49 3 1 0 0.98 0 2 0.99 0 2 0c1.45 1.47 1.45 1.47 3.13 3.5 6.14 7.69 6.14 7.69 13.87 13.5q0.04 16.01 0.05 32.02 0.01 7.44 0.03 14.87 0.01 7.17 0.01 14.34 0.01 2.74 0.02 5.48 0.01 3.82 0 7.65 0.01 1.14 0.01 2.31c-0.01 5.22-0.01 5.22-1.12 6.33q-2.45 0.14-4.91 0.12c-1.61 0.01-1.61 0.01-3.26 0.01-1.79 0-1.79 0-3.62-0.01-1.89 0-1.89 0-3.82 0.01q-5.31 0-10.61-0.01-5.75 0-11.51 0-10.09 0.01-20.19 0-15.01-0.01-30.03-0.01-25.25 0.01-50.5 0-25.01-0.01-50.02-0.02-1.55 0-3.14 0-7.89 0-15.78 0-55.92 0-111.84-0.01-54.34-0.02-108.67-0.03c-1.68 0-1.68 0-3.38 0q-16.81 0-33.62 0-34.25 0-68.49-0.01-1.57 0-3.18 0-105.22-0.01-210.43-0.04 0.03 1.16 0.05 2.36c-0.06 2.91-0.68 4.42-2.05 6.95-0.56 1.05-0.56 1.05-1.12 2.12q-0.44 0.77-0.88 1.57-0.98 0-2 0-0.15 1.07-0.3 2.17c-2 8.14-9.02 16.76-14.7 22.83q-0.98 0-2 0c-0.4 0.87-0.4 0.87-0.8 1.75-3.1 5.81-7.9 10.46-13.43 13.95-1.95 1.35-1.95 1.35-4 3.63-3.24 3.12-6.64 5.34-10.46 7.67q-1.06 0.65-2.16 1.33c-5.25 3.2-10.56 6.1-16.15 8.67q-1.29 0.61-2.62 1.24-5.17 2.42-10.38 4.76-1.39 0.63-2.83 1.28-4.86 2.18-9.73 4.34-1.56 0.7-3.16 1.42c-6.09 2.7-12.18 5.03-18.54 7.03-4.74 1.61-9.21 3.8-13.74 5.93q-3.49 1.55-7 3.08c-1.82 0.84-3.57 1.81-5.31 2.79-2.69 1.13-2.69 1.13-4.71 0.54-2.71-1.93-3.26-3.81-4.42-6.91-1.47-3.78-2.97-7.42-4.87-11-3.8-7.4-6.66-15.24-9.7-22.98q-1.55-3.95-3.11-7.89-0.47-1.18-0.95-2.4c-1.17-2.81-2.53-5.51-3.91-8.23q-1.67-3.26-3.27-6.56-0.5-1.02-1.02-2.07c-0.98-3.17-0.84-6.08-0.73-9.37 18.64-7.89 18.64-7.89 24.19-10.06 5.03-1.99 9.97-4.19 14.92-6.37 3.65-1.61 7.31-3.17 11.02-4.63 9.15-3.63 18.15-7.42 26.87-12q0.91-0.47 1.85-0.96c3.09-1.66 5.81-3.45 8.46-5.73 2.69-2.25 2.69-2.25 4.69-2.25q0-0.99 0-2 0.99 0 2 0c0.4-0.84 0.4-0.84 0.81-1.69 1.19-2.31 1.19-2.31 2.63-4.5 9.52-17.14 6.82-39.64 6.73-58.57q-0.02-5.77-0.03-11.54-0.01-10.89-0.05-21.78-0.07-19.56-0.1-39.12-0.02-6.86-0.04-13.72-0.02-4.24-0.03-8.49-0.01-2.92-0.02-5.83 0-1.71-0.01-3.48 0-1.49-0.01-3.03c0.12-2.25 0.12-2.25 1.12-3.25q3.77-0.15 7.53-0.13 1.18 0 2.39 0 3.93-0.01 7.86 0 2.72 0 5.44-0.01 5.7 0 11.41 0.01 7.33 0.01 14.66 0 5.61-0.01 11.23 0 2.7 0 5.4-0.01 3.78 0 7.55 0.01 1.12 0 2.28-0.01c5.14 0.03 5.14 0.03 6.25 1.14q0.13 2.05 0.12 4.11c0 1.32 0 1.32 0 2.68q0 1.46-0.01 2.96 0 1.53 0 3.11 0 5.1-0.01 10.21-0.01 3.53-0.01 7.05 0 9.31-0.02 18.62-0.02 9.49-0.02 18.98-0.02 18.64-0.05 37.28 0.86-0.24 1.76-0.49c3.64-0.83 7.33-0.65 11.05-0.64q1.34 0 2.72 0 4.53-0.01 9.06 0 3.24 0 6.48 0 8.81-0.01 17.63 0 9.21 0 18.43-0.01 15.47 0 30.95 0.01 17.9 0.01 35.8 0 15.36-0.01 30.72 0 9.18 0 18.36-0.01 8.62 0 17.25 0.01 3.17 0 6.34 0 4.32-0.01 8.64 0 1.26 0 2.55 0c3.59 0.01 6.81 0.16 10.26 1.13q-0.04-1-0.09-2.03c-0.76-17.7-1.05-35.36-1.04-53.08q0-4.04 0-8.08-0.01-9.7-0.01-19.41 0.01-7.88 0.01-15.77 0-1.12 0-2.28 0-2.3-0.01-4.6 0-21.4 0.01-42.8 0.01-18.36 0-36.72-0.01-21.39 0-42.79 0-2.27 0-4.55 0-1.11 0-2.26 0-7.9-0.01-15.79 0-9.59 0.01-19.18 0-4.89 0-9.78-0.01-5.29 0-10.58 0-1.55 0-3.15 0-1.4 0-2.84 0-1.21 0-2.47c0.27-3.97 3.13-2.96 6.45-2.98zm453.68 84.14c-3.64 5.47-8 12.28-8 19 28.71 0.33 57.42 0.66 87 1-1.5-12.04-6.53-20.33-16-28q-0.98 0-2 0 0-0.99 0-2c-21.92-10.92-43.99-8.77-61 10zm-44 123q0.99 0.98 2 2 0-0.99 0-2-0.98 0-2 0zm48 44q0.99 0.98 2 2 0-0.99 0-2-0.98 0-2 0z"/>
	<path class="s1" d="m241.48 4.68q3.28 0 6.56-0.04c12.55-0.06 24.61 1.64 36.58 5.58q2.44 0.8 4.92 1.44c21.44 6.03 47 23.38 59.46 42.34q0 0.99 0 2 1.48 0.49 3 1c3 4.33 3 4.33 3 7q0.99 0 2 0c5.82 10.14 11.24 20.38 15.25 31.38q0.35 0.92 0.71 1.88c5.8 16.6 5.5 33.51 5.49 50.86q0 5.7 0.03 11.4 0.05 11.13 0.06 22.27 0.02 12.96 0.06 25.93 0.07 23.13 0.11 46.25 0.04 22.44 0.1 44.88 0.01 1.38 0.01 2.8 0.01 2.79 0.02 5.59 0 1.37 0.01 2.78c0 1.37 0 1.37 0 2.77q0.07 21.4 0.12 42.8 0.01 7.76 0.04 15.52 0.03 12.29 0.05 24.57 0.01 5.62 0.02 11.23 0.02 6.08 0.02 12.15 0.01 1.78 0.02 3.62 0 1.6 0 3.26 0 1.4 0 2.84c-0.12 2.22-0.12 2.22-1.12 4.22q-15.62 0.04-31.24 0.05-7.25 0.01-14.5 0.03-7 0.01-13.99 0.01-2.67 0.01-5.35 0.02-3.73 0.01-7.46 0c-1.12 0.01-1.12 0.01-2.26 0.01-5.09-0.01-5.09-0.01-6.2-1.12q-0.13-2.58-0.12-5.17c0-1.68 0-1.68 0-3.39q0-1.86 0.01-3.76 0-1.94 0-3.93 0-5.36 0.01-10.71 0.01-5.59 0.01-11.17 0-10.59 0.02-21.18 0.01-12.05 0.02-24.1 0.02-24.79 0.05-49.59-2.64-0.01-5.29-0.02-1.46 0-2.97-0.01c-13.3 0.14-23 5.37-33.92 12.32-2.82 1.71-2.82 1.71-5.82 2.71q0 0.99 0 2-2.56 1.87-5.25 3.56c-5.67 3.67-11.02 7.61-16.35 11.75-2.4 1.69-2.4 1.69-4.4 1.69q0 0.99 0 2c-1.9 1.51-1.9 1.51-4.37 3.13-1.22 0.8-1.22 0.8-2.47 1.63-2.16 1.24-2.16 1.24-4.16 1.24q0 0.99 0 2c-6.46 4.96-11.79 5.15-19.71 5.15q-1.29 0-2.62 0.01-4.28 0.01-8.56 0.01-2.97 0-5.95 0.01-6.22 0.01-12.45 0.01-8 0-15.99 0.03-6.14 0.01-12.28 0.01-2.95 0-5.9 0.01-4.11 0.01-8.22 0-1.22 0.01-2.48 0.02c-5.61-0.03-5.61-0.03-7.84-2.26-0.18-2.86-0.24-5.61-0.21-8.47q0-1.32 0.01-2.68 0.01-4.49 0.05-8.97 0.01-3.21 0.02-6.41 0.04-8.74 0.1-17.47 0.05-9.13 0.09-18.27 0.07-15.37 0.16-30.73 0.11-17.74 0.19-35.48 0.08-18.89 0.18-37.78 0.03-5.44 0.06-10.87 0.04-8.57 0.09-17.13 0.02-3.14 0.04-6.27c0.07-15.77 0.25-30.35 5.22-45.47q0.37-1.17 0.76-2.38c3.4-10.58 7.05-20.29 13.24-29.62q1.08-1.69 2.15-3.39c4-6.21 4-6.21 5.85-8.61q0.99 0 2 0 0.39-0.86 0.79-1.74c1.31-2.45 2.82-4.35 4.65-6.45q0.89-1.03 1.81-2.1c1.75-1.71 1.75-1.71 4.75-2.71q0.49-1.48 1-3 0.99 0 2 0 0.49-1.48 1-3c1.84-1.65 3.66-3.14 5.63-4.62q0.85-0.66 1.74-1.33c22.89-17.03 49.51-26.45 78.11-26.37zm-18.48 82.32q-1.16 0.5-2.36 1.02c-3.94 1.81-6.7 3.74-9.64 6.98q-2.49 2.01-5 4c-1.79 1.46-1.79 1.46-3 3q0 1.48 0 3-0.98 0-2 0-1.43 2.61-2.81 5.25-0.78 1.45-1.58 2.95c-4.26 9.24-5.05 18.79-4.95 28.82q0 1.85 0 3.76 0 5.04 0.04 10.08 0.02 5.29 0.02 10.58 0.02 10 0.06 19.99 0.05 11.38 0.07 22.77 0.05 23.4 0.15 46.8 1.65-0.94 3.36-1.9c0.93-0.53 0.93-0.53 1.89-1.07 2.08-1.22 3.98-2.6 5.88-4.09 2.26-1.75 4.39-3.24 6.87-4.69 0.99-0.62 0.99-0.62 2-1.25q0-0.98 0-2 1.48 0 3 0 0-0.98 0-2 1.08-0.41 2.19-0.82c2.75-1.16 5.23-2.5 7.81-3.99 6.13-3.38 12.4-5.89 19-8.19q0.94-0.33 1.91-0.67c9.3-3.21 18.28-5.27 28.09-6.33q1.17-0.17 2.38-0.34c4.65-0.63 9.21-0.7 13.9-0.68q1.88 0 3.82 0.01 1.43 0 2.9 0.01 0.11-17.29 0.16-34.58 0.02-8.03 0.07-16.06 0.04-7.76 0.05-15.53 0.01-2.94 0.04-5.89c0.18-18.66 0.18-18.66-6.32-35.94-0.61-1.06-0.61-1.06-1.23-2.13-1.77-3.01-1.77-3.01-3.77-5.87q-0.98 0-2 0-0.39-0.88-0.79-1.79c-4.5-8.24-13.93-11.89-22.21-15.21q-1.38-0.56-2.8-1.14c-4.31-1.16-8.38-1.24-12.82-1.23-1.34 0-1.34 0-2.69 0-7.15 0.13-13.16 1.37-19.69 4.37z"/>
	<path class="s0" d="m116.25 363.86c1.13 0.01 1.13 0.01 2.28 0.01q1.18 0 2.39 0 3.93-0.01 7.86 0 2.72 0 5.44-0.01 5.7 0 11.41 0.01 7.33 0.01 14.66 0 5.61-0.01 11.23 0 2.7 0 5.4-0.01 3.78 0 7.55 0.01 1.12 0 2.28-0.01c5.14 0.03 5.14 0.03 6.25 1.14q0.13 2.05 0.12 4.11c0 1.32 0 1.32 0 2.68q0 1.46-0.01 2.96 0 1.53 0 3.11 0 5.1-0.01 10.21-0.01 3.53-0.01 7.05 0 9.31-0.02 18.62-0.02 9.49-0.02 18.98-0.02 18.64-0.05 37.28 0.86-0.24 1.76-0.49c3.64-0.83 7.32-0.65 11.04-0.64q1.34-0.01 2.72-0.01 4.53-0.01 9.05-0.01 3.24 0 6.48-0.01 8.81-0.01 17.62-0.01 7.34 0 14.69-0.01 17.33-0.01 34.66-0.01 17.89 0 35.78-0.02 15.35-0.02 30.7-0.02 9.18 0 18.35-0.01 8.62-0.02 17.25 0 3.17 0 6.34-0.01 4.31-0.01 8.63 0 1.26 0 2.55-0.01c4.25 0.02 7.5 0.29 11.38 2.26q0.07 8.19 0.11 16.38 0.01 2.77 0.04 5.55c0.17 18.21 0.24 36.17-13.08 50.17-1.94 1.78-3.9 3.29-6.07 4.77q-1.48 1.05-3 2.13 0 1.48 0 3c-70.62 0-141.24 0-214 0q0 2.46 0 5c-0.88 2.24-0.88 2.24-2 4.31-0.56 1.05-0.56 1.05-1.13 2.12-0.43 0.78-0.43 0.78-0.87 1.57q-0.99 0-2 0-0.15 1.07-0.3 2.17c-2 8.14-9.02 16.76-14.7 22.83q-0.99 0-2 0c-0.4 0.87-0.4 0.87-0.8 1.75-3.1 5.81-7.9 10.46-13.43 13.95-1.95 1.35-1.95 1.35-4 3.63-3.24 3.12-6.64 5.34-10.46 7.67q-1.06 0.65-2.16 1.33c-5.25 3.2-10.56 6.1-16.15 8.67q-1.29 0.61-2.62 1.24-5.17 2.42-10.38 4.76-1.39 0.63-2.83 1.28-4.86 2.18-9.73 4.34-1.56 0.7-3.16 1.42c-6.09 2.7-12.18 5.03-18.54 7.03-4.74 1.61-9.21 3.8-13.74 5.93q-3.49 1.55-7 3.08c-1.82 0.84-3.57 1.81-5.31 2.79-2.69 1.13-2.69 1.13-4.71 0.54-2.71-1.93-3.26-3.81-4.42-6.91-1.47-3.78-2.97-7.42-4.87-11-3.8-7.4-6.66-15.24-9.7-22.98q-1.55-3.95-3.11-7.89-0.47-1.18-0.95-2.4c-1.17-2.81-2.53-5.51-3.91-8.23q-1.67-3.26-3.27-6.56-0.5-1.02-1.02-2.07c-0.98-3.17-0.84-6.08-0.73-9.37 18.64-7.89 18.64-7.89 24.19-10.06 5.03-1.99 9.97-4.19 14.92-6.37 3.65-1.61 7.31-3.17 11.01-4.63 9.16-3.63 18.16-7.42 26.88-12q0.91-0.47 1.85-0.96c3.09-1.66 5.81-3.45 8.46-5.73 2.69-2.25 2.69-2.25 4.69-2.25q0-0.99 0-2 0.98 0 2 0 0.4-0.83 0.81-1.69c1.19-2.31 1.19-2.31 2.63-4.5 9.52-17.14 6.82-39.64 6.73-58.57q-0.02-5.77-0.03-11.54-0.01-10.89-0.05-21.78-0.07-19.56-0.1-39.12-0.02-6.86-0.04-13.72-0.02-4.24-0.03-8.49-0.01-2.92-0.02-5.83 0-1.71-0.01-3.48 0-1.49-0.01-3.03c0.23-4.32 2.63-3.37 6.37-3.39z"/>
	<path class="s2" d="m1207 149q1.97 0 4 0 2.38 5.69 4.75 11.38 0.66 1.58 1.34 3.21c2.4 5.74 4.76 11.49 7.02 17.28 0.88 2.1 1.85 4.11 2.89 6.13 2.33 4.54 4.15 9.25 6 14q1.52 3.88 3.06 7.75 0.37 0.93 0.75 1.9c1.17 2.95 2.39 5.71 3.94 8.49 1.25 2.86 1.25 2.86 1.22 5.61-0.97 2.25-0.97 2.25-2.97 3.47q-1.26 0.42-2.56 0.84c-3.22 1.14-6.25 2.27-9.25 3.88-3.18 1.64-6.41 2.94-9.76 4.2-8.05 3.06-15.99 6.36-23.93 9.69q-3.74 1.56-7.48 3.11c-8.48 3.54-16.66 7.27-24.65 11.81-2.37 1.25-2.37 1.25-4.37 1.25q0 0.99 0 2c-1.02 0.56-1.02 0.56-2.06 1.12-3.55 2.27-5.76 4.99-8.39 8.24q-0.76 0.81-1.55 1.64-0.99 0-2 0-0.15 0.99-0.31 2c-0.69 3-0.69 3-2.13 6.37-5.52 14.81-3.84 31.9-3.79 47.41q0.01 5.65 0 11.31 0 9.77 0.02 19.54 0.02 14.12 0.02 28.25 0.01 22.92 0.04 45.84 0.03 22.26 0.04 44.51 0 1.37 0 2.78 0.01 6.89 0.01 13.79 0.03 57.1 0.1 114.2c-27.06 0-54.12 0-82 0-1.78-4.46-2.24-6.13-2.14-10.65q0.03-1.7 0.07-3.45 0.04-1.88 0.09-3.82 0.04-2.06 0.08-4.11 0.08-4.54 0.18-9.07 0.25-13.03 0.43-26.06 0.02-1.43 0.04-2.9c0.37-26.04 0.34-52.09 0.32-78.13q-0.01-6-0.01-11.99-0.02-27.58-0.06-55.17-0.01-9.5-0.02-19 0-1.04 0-2.12-0.02-17.48-0.03-34.97-0.01-11.6-0.03-23.2-0.01-7.16-0.01-14.33-0.01-3.3-0.02-6.6c-0.06-27.42 1.78-53.65 19.11-76.43q0.99 0 2 0 0.17-0.87 0.35-1.77c0.7-2.4 1.63-3.96 3.09-5.98q0.64-0.92 1.31-1.86 0.61-0.68 1.25-1.39 0.99 0 2 0 0.33-0.81 0.66-1.64c1.8-3.17 4.21-5.57 6.78-8.11q0.79-0.79 1.6-1.6c4.92-4.8 10.29-8.78 15.96-12.65q1.05-0.84 2.12-1.71c1.88-1.29 1.88-1.29 4.88-1.29q0-0.99 0-2c15.97-8.64 32.06-16.44 49-23q2.6-1.03 5.19-2.06c1.18-0.48 1.18-0.48 2.39-0.96q3.91-1.59 7.79-3.23 5.88-2.46 11.81-4.81c1.36-0.54 1.36-0.54 2.75-1.1q2.74-1.08 5.48-2.16 1.25-0.5 2.54-1.01 1.13-0.44 2.29-0.9c1.75-0.64 1.75-0.64 2.76-1.77z"/>
	<path class="s3" d="m648.44 168.88q1.43-0.01 2.91-0.02c21.17 0.03 39.42 5.98 57.71 16.58q1.5 0.86 3.04 1.74c2.83 1.78 5.41 3.59 7.9 5.82q0 0.99 0 2 1.48 0 3 0 0 0.99 0 2 1.48 0.49 3 1 0 0.99 0 2 1.48 0.49 3 1 0 0.99 0 2 0.88 0.39 1.8 0.79c14.52 7.98 23.14 31.27 28.06 45.96 3.47 12.23 4.6 23.83 4.65 36.46q0.03 2.13 0.05 4.25 0.08 7.74 0.13 15.48c0.1 11.57 0.2 23.14 0.31 35.06-42.57 0.33-85.14 0.66-129 1q0 0.99 0 2 0.98 0 2 0c1.62 1.38 1.62 1.38 3 3q0 0.99 0 2 1.48 0.49 3 1 0 0.99 0 2 1.48 0.49 3 1 0 0.99 0 2 0.92 0.46 1.87 0.94 2.07 1.03 4.13 2.06 0 0.99 0 2 1.05 0.4 2.12 0.81c2.88 1.19 2.88 1.19 5.69 2.69 7.55 3.55 14.91 3.85 23.13 4.06q3.11 0.09 6.21 0.19c1.36 0.04 1.36 0.04 2.75 0.08 2.1 0.17 2.1 0.17 3.1 1.17q0.13 3.22 0.11 6.45 0 1 0 2.04 0 3.35-0.01 6.7-0.01 2.32-0.01 4.64 0 6.11-0.02 12.22-0.02 6.24-0.02 12.47-0.02 12.24-0.05 24.48c-12.9 6.45-39.45-1.07-52.56-5.25-14.3-5.03-31.19-13.08-41.44-24.75q0-0.99 0-2-0.83-0.34-1.68-0.7c-2.95-1.66-4.99-3.73-7.38-6.13q-0.71-0.71-1.44-1.44-1.49-1.5-2.98-3.01-2.27-2.28-4.54-4.56c-7.41-7.45-7.41-7.45-10.17-10.92-1.62-2.32-1.62-2.32-3.81-3.24q0-0.99 0-2-1.48-0.49-3-1 0-0.99 0-2-1.48-0.49-3-1 0-0.99 0-2-0.98 0-2 0c-1.63-1.38-1.63-1.38-3-3q0-0.99 0-2-1.48-0.49-3-1 0-0.99 0-2-1.48-0.49-3-1c-1.73-1.76-3.24-3.66-4.81-5.58-2.13-2.48-2.13-2.48-4.72-4.46-4.8-3.98-7.93-7.21-8.57-13.63-0.15-3.71-0.09-7.4 0.02-11.12q0.01-2.43 0.02-4.87 0.03-5.1 0.14-10.2 0.14-6.46 0.16-12.93 0.03-6.25 0.12-12.5 0.01-1.14 0.02-2.33c0.16-13.7 1.1-27.86 6.62-40.57q0.74-1.74 1.5-3.54c2.21-4.82 4.59-9.52 7.19-14.15 0.65-1.17 0.65-1.17 1.32-2.36q0.49-0.87 0.99-1.76 0.98 0 2 0 0.98-2.46 2-5 0.98 0 2 0 0-1.48 0-3 0.98 0 2 0 0.35-0.83 0.7-1.68c7.39-13.22 24.26-22.72 37.3-29.32 0.99-0.55 0.99-0.55 2-1.11 6-3.25 12.45-5.04 19-6.89q1.11-0.33 2.26-0.66c8.88-2.43 18.03-2.5 27.18-2.47zm-34.44 83.13q0 0.98 0 2-0.99 0-2 0-1.49 2.52-2.94 5.06-0.81 1.4-1.65 2.85c-1.82 3.6-1.82 3.6-2.41 10.09 28.71 0.33 57.42 0.66 87 1-1.61-11.3-6.54-19.48-15-27q-0.99 0-2 0 0-0.98 0-2c-21.5-11.93-43.74-10.32-61 8z"/>
	<path class="s4" d="m915.5 168.88q1.43-0.01 2.89-0.02c11.87 0.02 22.3 1.46 33.61 5.14q1.57 0.5 3.18 1.02c18.9 6.66 34.11 18.66 47.82 32.98 0.85 0.76 0.85 0.76 1.71 1.53 1.29 1.47 1.29 1.47 1.29 4.47q1.48 0.49 3 1c10.06 11.16 14.97 27.86 19 42q0.49 1.48 1 3c2.69 26.87 2 53.99 2 81-42.57 0.33-85.14 0.66-129 1 17.85 18.44 17.85 18.44 41.39 25.28q1.52 0.06 3.09 0.11 3.23 0.11 6.45 0.22 1.52 0.05 3.08 0.11 1.39 0.04 2.83 0.09c2.16 0.19 2.16 0.19 3.16 1.19q0.13 3.22 0.11 6.45 0 1 0 2.04 0 3.35-0.01 6.7-0.01 2.32-0.01 4.64 0 6.11-0.02 12.22-0.02 6.24-0.02 12.47-0.02 12.24-0.05 24.48c-14.43 2.15-29.97 1.04-44-3q-1.76-0.51-3.58-1.03c-9.92-3.08-19.12-7.38-28.42-11.97q0-0.99 0-2-0.99 0-2 0 0-0.99 0-2-1.48 0-3 0 0-1.48 0-3-1.97-0.49-4-1 0-0.99 0-2-1.17-0.46-2.37-0.94c-2.63-1.06-2.63-1.06-4.63-2.06q0-0.99 0-2-0.88-0.39-1.78-0.79c-2.34-1.27-3.87-2.62-5.72-4.52q-0.85-0.86-1.72-1.74c-1.78-1.95-1.78-1.95-3.58-4.36-3.11-3.66-6.86-6.19-10.77-8.93-1.73-1.26-1.73-1.26-4.43-3.66q0-1.97 0-4-1.97 0-4 0 0-1.48 0-3c-0.9-0.39-0.9-0.39-1.81-0.78-2.39-1.33-3.5-2.58-5.17-4.73-2.99-3.56-6.19-6.26-9.89-9.06-9.97-7.85-18.56-15.67-20.15-28.81-0.87-9.77-0.39-19.57 0.14-29.35 0.17-3.71 0.24-7.41 0.31-11.12 0.57-32.65 5.82-57.73 26.57-84.15q1.01-1.3 2.04-2.64c1.76-2.12 3.5-3.89 5.58-5.67q0.89-0.77 1.79-1.55c1.59-1.14 1.59-1.14 3.59-1.14q0-0.99 0-2c21.92-17.55 46.48-26.24 74.5-26.12zm-35.5 84.12c-3.64 5.47-8 12.28-8 19 28.71 0.33 57.42 0.66 87 1-1.5-12.04-6.53-20.33-16-28q-0.99 0-2 0 0-0.98 0-2c-21.92-10.92-43.99-8.77-61 10z"/>
	<path class="s5" d="m426.32 168.86c1.14 0.01 1.14 0.01 2.31 0.01q1.19 0 2.41 0 3.98-0.01 7.96 0 2.75 0 5.5-0.01 5.78 0 11.55 0.01 7.42 0.01 14.85 0 5.68-0.01 11.37 0 2.73 0 5.47-0.01 3.82 0 7.64 0.01 1.13 0 2.3-0.01c5.21 0.03 5.21 0.03 6.32 1.14q0.13 2.39 0.12 4.79c0 1.56 0 1.56 0 3.16q-0.01 1.73-0.01 3.51c0 1.83 0 1.83 0 3.7q-0.01 5.1-0.02 10.21-0.01 5.49-0.02 10.99-0.01 9.53-0.03 19.06-0.02 13.78-0.03 27.56-0.02 22.37-0.04 44.73-0.01 1.34-0.01 2.71-0.02 19.02-0.05 38.03 0 1.33-0.01 2.71 0 1.33 0 2.7-0.03 22.28-0.05 44.55-0.01 13.76-0.04 27.51-0.02 9.42-0.02 18.84 0 5.44-0.01 10.88-0.02 5.89-0.01 11.78-0.01 1.72-0.02 3.5c0 1.57 0 1.57 0.01 3.17q-0.01 1.35-0.01 2.75c0.05 2.37 0.05 2.37 2.25 4.16q-1.97 0-4 0c0.01 1.14 0.01 1.14 0.02 2.3q0.09 10.81 0.14 21.62 0.02 5.55 0.07 11.11 0.04 5.38 0.05 10.75 0.02 3.02 0.06 6.03c0 7.71-0.82 14.68-2.69 22.17-0.82 3.32-0.82 3.32-0.65 8.02-32.67 0-65.34 0-99 0-0.49-1.49-0.49-1.49-1-3 1.09-0.82 1.09-0.82 2.2-1.65 11.98-9.35 17.18-18.57 19.39-33.42 0.71-6.82 0.67-13.62 0.62-20.46q-0.03-3.71-0.02-7.43-0.03-12.77-0.55-25.53c-0.63-15.58-0.78-31.14-0.77-46.73q0-4.04 0-8.08-0.01-9.7-0.01-19.4 0.01-7.88 0.01-15.76 0-1.13 0-2.29 0-2.29-0.01-4.59 0-21.39 0.01-42.78 0.01-18.35 0-36.7-0.01-21.39 0-42.78 0-2.27 0-4.55 0-1.11 0-2.26 0-7.89-0.01-15.78 0-9.58 0.01-19.17 0-4.89 0-9.77-0.01-5.29 0-10.57 0-1.56 0-3.16c0-1.4 0-1.4 0-2.83q0-1.22 0-2.47c0.27-3.97 3.13-2.96 6.45-2.98z"/>
	<path class="s6" d="m585.45 590.61c2.55 0.39 2.55 0.39 4.1 2.19q0.65 1.24 1.32 2.51 0.76 1.36 1.54 2.76 0.78 1.44 1.59 2.93c3.81 6.6 7.43 11.95 13.5 16.66 0.74 0.66 0.74 0.66 1.5 1.34q0 0.99 0 2 0.88 0.41 1.78 0.84c2.22 1.16 2.22 1.16 3.97 2.48 2.15 1.48 3.66 2.25 6.25 2.68 7.4-2.81 16.39-9.78 20-17q0.98 0 2 0 0.38-1.02 0.78-2.08c1.4-3.35 3.05-6.48 4.78-9.67q0.93-1.72 1.88-3.48c1.56-2.77 1.56-2.77 2.56-3.77 2.25-0.5 2.25-0.5 5 0 3.02 3.55 5.11 7.19 7.25 11.31 5.93 10.87 15.99 20.29 27.31 25.25 2.49 1.15 2.49 1.15 4.44 2.44 1.31 3.62 1.31 3.62 1 7-2.09 2.6-4.61 4.08-7.5 5.69q-1.15 0.65-2.34 1.32c-2.16 0.99-2.16 0.99-5.16 0.99q-0.49 1.48-1 3c-1.6 1.54-1.6 1.54-3.63 3.19-7.03 6.01-11.85 12.1-16.01 20.39-2.24 3.98-2.24 3.98-4.36 5.42-2.41 0.1-2.41 0.1-5-1-1.7-2.21-3.06-4.23-4.44-6.63q-1.16-1.92-2.33-3.83-0.56-0.92-1.14-1.86c-1.39-2.14-2.95-4.04-4.65-5.93-2.44-2.75-2.44-2.75-2.44-4.75q-0.92-0.46-1.88-0.94-2.06-1.03-4.12-2.06 0-0.99 0-2-1.08-0.4-2.19-0.81c-2.81-1.19-2.81-1.19-5.31-2.88-2.39-1.51-2.39-1.51-4.94-1.25-3.22 1.18-5.75 3-8.56 4.94q-0.99 0-2 0 0 0.98 0 2c-3.46 3-3.46 3-6 3q-0.37 0.8-0.75 1.63c-2.1 3.98-4.74 7.59-7.28 11.3-2.03 3.04-2.03 3.04-3.6 6.33-1.37 2.74-1.37 2.74-3.37 4.74-2.65-0.2-4.4-0.51-6.48-2.21-1.9-2.24-3.1-4.62-4.46-7.23-2.85-4.98-6-9-10.06-13.06q-0.73-0.73-1.47-1.49c-4.37-4.23-9.12-6.83-14.58-9.5q-1.39-0.68-2.83-1.39-1.41-0.67-2.86-1.36c-2.26-1.76-2.26-1.76-3.17-4.83-0.09-2.93-0.09-2.93 1.28-4.99 9.4-6.94 9.4-6.94 14.63-6.94q0-0.99 0-2c1.47-1.41 1.47-1.41 3.5-3.06 7.93-6.81 13.37-13.9 18.05-23.22 2.42-4.55 2.42-4.55 5.9-5.11z"/>
	<path class="s3" d="m459 50c3.34 0.06 3.34 0.06 7 1 2 2.66 2 2.66 3.56 6.06 3.87 7.88 7.84 14.02 14.73 19.52 1.71 1.42 1.71 1.42 3.6 3.39 2.25 2.17 4.49 3.64 7.17 5.22q1.28 0.76 2.6 1.54c2.38 1.38 2.38 1.38 5.34 2.27 0.5 3.47 0.5 3.47 1 7-7.71 6-7.71 6-12 6q0 0.99 0 2-2.42 1.75-4.94 3.38c-9.2 6.54-14.88 15.4-19.58 25.54-1.48 2.08-1.48 2.08-3.96 2.94-2.52 0.14-2.52 0.14-5.52-0.86-1.5-2.36-1.5-2.36-3-5.31-1.44-2.81-2.78-5.41-4.69-7.92-1.31-1.77-1.31-1.77-1.31-3.77-1.49-0.5-1.49-0.5-3-1q-1.82-2.2-3.59-4.44c-1.46-1.62-2.88-2.66-4.72-3.81-1.33-0.87-1.33-0.87-2.69-1.75q0-0.98 0-2-0.81-0.16-1.65-0.32c-2.91-0.84-5.32-2.16-7.98-3.62q-1.43-0.78-2.91-1.59c-2.81-1.68-4.22-2.57-5.09-5.78 0.63-2.69 0.63-2.69 2.03-3.88 2.17-1.34 4.37-2.58 6.6-3.81 14.31-8.43 22.54-18.85 30.84-33.07 1.16-1.93 1.16-1.93 2.16-2.93z"/>
	<path class="s6" d="m875.34 595.89c4.11 1.72 5.23 4.94 7.16 8.8 2.16 4.18 4.19 8.12 7.28 11.7 2.22 2.61 2.22 2.61 2.22 4.61 0.85 0.38 0.85 0.38 1.71 0.77 2.59 1.39 4.61 3.07 6.85 4.98 5.13 4.18 10.54 7.29 16.44 10.25 0.31 2.25 0.31 2.25 0 5-3.22 3.18-6.99 5.21-10.94 7.38-4.84 2.75-8.3 5.56-12.06 9.62q-0.99 0-2 0-0.4 0.86-0.82 1.75c-1.19 2.27-2.54 4.16-4.12 6.19-4.12 5.19-4.12 5.19-6.56 11.25-0.5 1.81-0.5 1.81-3.5 3.81-2.69 0.13-2.69 0.13-5 0q0-0.98 0-2-0.99 0-2 0-0.49-2.46-1-5-0.99 0-2 0-0.52-1.2-1.06-2.44c-6.73-13.14-18.4-20.74-31.42-26.86-2.52-1.7-2.52-1.7-3.47-4.28-0.05-2.42-0.05-2.42 1.32-4.42 2.24-1.7 4.29-2.94 6.75-4.25 12.88-6.93 21.81-17.16 28.88-29.75 4.02-6.96 4.02-6.96 7.34-7.11z"/>
	<path class="s7" d="m1054 287q0.99 0 2 0c0 106.26 0 212.52 0 322 26.07 0 52.14 0 79 0 0-72.93 0-145.86 0-221q0.49 0 1 0c0.33 73.92 0.66 147.84 1 224-27.06 0-54.12 0-82 0-1.78-4.45-2.24-6.12-2.14-10.63q0.03-1.7 0.06-3.45 0.05-1.88 0.1-3.81 0.04-2.05 0.08-4.11 0.08-4.52 0.17-9.05 0.26-13.02 0.43-26.05 0.02-1.43 0.04-2.9c0.38-26.89 0.37-53.77 0.36-80.66q0-4.03 0-8.05-0.01-22.49-0.03-44.99-0.01-15.85-0.02-31.71 0-1.05 0-2.14 0-5.31 0-10.63-0.02-43.41-0.05-86.82z"/>
	<path class="s8" d="m422 169q15.82-0.04 31.63-0.05 7.34-0.01 14.69-0.03 7.08-0.01 14.16-0.01 2.71-0.01 5.41-0.02 3.78-0.01 7.56 0 1.13-0.01 2.29-0.01c5.15 0.01 5.15 0.01 6.26 1.12q0.13 2.39 0.12 4.79c0 1.56 0 1.56 0 3.16q-0.01 1.73-0.01 3.51c0 1.83 0 1.83 0 3.7q-0.01 5.1-0.02 10.21-0.01 5.49-0.02 10.99-0.01 9.53-0.03 19.06-0.02 13.78-0.03 27.56-0.02 22.37-0.04 44.73-0.01 1.34-0.01 2.71-0.02 19.02-0.05 38.03 0 1.33-0.01 2.71 0 1.33 0 2.7-0.03 22.28-0.05 44.55-0.01 13.76-0.04 27.51-0.02 9.42-0.02 18.84 0 5.44-0.01 10.88-0.02 5.89-0.01 11.78-0.01 1.72-0.02 3.5c0 1.57 0 1.57 0.01 3.17q-0.01 1.35-0.01 2.75c0.05 2.37 0.05 2.37 2.25 4.16q-2.46 0-5 0c0-99 0-198 0-300-24.09 0-48.18 0-73 0-2.97-0.5-2.97-0.5-6-1q0-0.49 0-1z"/>
	<path class="s9" d="m206.04 468.87q1.34-0.01 2.73-0.01 4.51-0.01 9.03-0.01 3.24 0 6.48-0.01 8.79-0.01 17.59-0.01 7.34 0 14.68-0.01 17.31-0.01 34.62-0.01 17.87 0 35.74-0.02 15.34-0.02 30.68-0.02 9.16 0 18.32-0.01 8.61-0.02 17.23 0 3.16 0 6.32-0.01 4.31-0.01 8.63 0 1.25 0 2.53-0.01c4.25 0.02 7.5 0.3 11.38 2.26q0 0.49 0 1-43.49 0.07-86.98 0.1-5.14 0.01-10.27 0.01c-1.02 0-1.02 0-2.06 0q-16.56 0.02-33.11 0.04-16.98 0.03-33.96 0.04-9.54 0-19.08 0.02-8.97 0.02-17.94 0.02-3.3 0-6.6 0.01-4.49 0.01-8.98 0c-1.32 0.01-1.32 0.01-2.67 0.02-6.01-0.03-6.01-0.03-9.35-2.26 5.06-1.02 9.9-1.14 15.04-1.13z"/>
	<path class="s10" d="m513.56 468.75q1.63 0 3.3-0.01c1.78 0.01 1.78 0.01 3.59 0.02 1.9 0 1.9 0 3.84-0.01q5.27 0 10.53 0.02 5.68 0.01 11.36 0 9.84 0 19.68 0.02 14.23 0.02 28.45 0.02 23.08 0.01 46.16 0.04 22.42 0.03 44.84 0.04 1.38 0 2.79 0 6.94 0.01 13.87 0.01 57.52 0.03 115.03 0.1 0.49 0.99 1 2c-103.95 0.33-207.9 0.66-315 1 0 17.49 0 34.98 0 53q-0.49 0-1 0c0-17.82 0-35.64 0-54 4.71-1.57 6.93-2.25 11.56-2.25z"/>
	<path class="s11" d="m123 80q1.48 0.49 3 1-0.56 1.11-1.14 2.25c-7.34 15.66-11 33.68-11.02 50.94q-0.01 1.35-0.01 2.74-0.02 4.53-0.04 9.06-0.01 3.25-0.03 6.51-0.03 8.81-0.06 17.63-0.04 9.23-0.08 18.45-0.07 17.45-0.14 34.91-0.07 19.87-0.16 39.75-0.17 40.88-0.32 81.76-0.98 0-2 0c-1-4.96-1.13-9.65-1.09-14.68q0-1.29 0.01-2.61 0.02-4.32 0.04-8.65 0.02-3.1 0.03-6.2 0.03-8.43 0.08-16.85 0.04-8.83 0.08-17.65 0.07-14.84 0.15-29.67 0.09-17.12 0.16-34.24 0.07-16.5 0.15-32.99 0.04-7 0.07-14.01 0.03-8.26 0.08-16.53 0.02-3.02 0.03-6.05c0.11-28.53 0.11-28.53 2.83-37.43q0.52-1.7 1.06-3.45c2.63-8.05 5.46-16.02 8.32-23.99z"/>
	<path class="s12" d="m197 550c66.66 0 133.32 0 202 0q0.49 1.48 1 3c-42.9 0-85.8 0-130 0q0-0.49 0-1c-24.09-0.33-48.18-0.66-73-1q0-0.49 0-1z"/>
	<path class="s13" d="m297 131q0.99 0 2 0c0 29.37 0 58.74 0 89-7.92 0.33-15.84 0.66-24 1-8.11 1.47-8.11 1.47-16.18 3.16-3.82 0.84-3.82 0.84-6.82 0.84q0-1.48 0-3c13.47-4.03 31.11-7.47 45-4 0-28.71 0-57.42 0-87z"/>
	<path class="s14" d="m116.26 363.88c1.14 0 1.14 0 2.29 0.01 1.18 0 1.18 0 2.39 0q3.94 0 7.88 0.01 2.72 0.01 5.44 0.01 7.18 0 14.36 0.02 7.32 0.02 14.64 0.02 14.37 0.02 28.74 0.05 0 1.48 0 3c-26.4-0.33-52.8-0.66-80-1 0 22.77 0 45.54 0 69q-0.49 0-1 0-0.23-13.66-0.44-27.33-0.1-6.34-0.21-12.69-0.1-6.11-0.19-12.23-0.04-2.34-0.08-4.68-0.06-3.27-0.1-6.53-0.03-1.85-0.06-3.76c0.14-4.8 2.07-3.9 6.34-3.9z"/>
	<path class="s15" d="m111 128q0.49 0 1 0c0.33 71.61 0.66 143.22 1 217q-0.98 0-2 0c-1-4.97-1.13-9.69-1.08-14.73q0-1.3 0.01-2.63 0.02-4.34 0.05-8.69 0.01-3.12 0.03-6.24 0.04-8.46 0.09-16.93 0.05-8.84 0.09-17.69 0.09-16.75 0.18-33.5 0.11-19.07 0.21-38.14 0.2-39.22 0.42-78.45z"/>
	<path class="s16" d="m926 365c7.59 0.89 7.59 0.89 9.8 1.5 2.56 0.58 4.96 0.7 7.59 0.78q1.52 0.06 3.09 0.11 3.23 0.11 6.45 0.22 1.52 0.05 3.08 0.11 1.39 0.04 2.83 0.09c2.16 0.19 2.16 0.19 3.16 1.19q0.13 3.22 0.11 6.45 0 1 0 2.04 0 3.35-0.01 6.7-0.01 2.32-0.01 4.64 0 6.11-0.02 12.22-0.02 6.24-0.02 12.47-0.02 12.24-0.05 24.48c-0.99-0.5-0.99-0.5-2-1 0-21.78 0-43.56 0-66-5.28 0-10.56 0-16 0-12.28-1.51-12.28-1.51-18-5q0-0.49 0-1z"/>
	<path class="s17" d="m499 551q0 0.99 0 2c-32.67 0-65.34 0-99 0q0-0.99 0-2 18.92-0.23 37.84-0.44 8.78-0.1 17.57-0.21 8.47-0.1 16.94-0.19 3.24-0.04 6.47-0.08 4.53-0.06 9.05-0.1c1.35-0.02 1.35-0.02 2.73-0.04 6.17-0.05 6.17-0.05 8.4 1.06z"/>
	<path class="s18" d="m603 268c1.49 0.99 1.49 0.99 3 2q-0.49 0.99-1 2c1.59 0 1.59 0 3.21-0.01q14.94-0.03 29.88-0.04 7.69-0.01 15.37-0.03 7.41-0.01 14.82-0.01 2.83-0.01 5.66-0.02 3.96-0.01 7.92 0 1.17-0.01 2.37-0.01c3.19 0 5.72 0.1 8.77 1.12q0.49-1.97 1-4c0.5 2.48 0.5 2.48 1 5-30.69 0-61.38 0-93 0q0.49-2.95 1-6z"/>
	<path class="s19" d="m538 253q0.49 0 1 0c-0.33 28.71-0.66 57.42-1 87q-0.99-0.49-2-1-0.04-13.22-0.05-26.44-0.01-6.14-0.03-12.28-0.01-5.92-0.01-11.85-0.01-2.26-0.02-4.52-0.01-3.16 0-6.33-0.01-1.79-0.01-3.64c0.12-2.94 0.12-2.94 1.12-5.94q-0.99 0-2 0 0.46-3.19 0.94-6.38 0.26-1.76 0.52-3.58c0.54-3.04 0.54-3.04 1.54-5.04z"/>
	<path class="s20" d="m657 364c3.24 0.49 6.31 1.09 9.47 2 5.45 1.38 10.93 1.46 16.53 1.63 1.59 0.05 1.59 0.05 3.21 0.11q3.9 0.14 7.79 0.26c1.08 3.47 1.09 6.61 1.02 10.24q-0.03 1.88-0.06 3.82-0.04 2.06-0.08 4.11-0.04 2.11-0.07 4.22-0.1 5.55-0.2 11.09-0.11 5.66-0.21 11.32-0.19 11.1-0.4 22.2-0.49 0-1 0c-0.33-21.12-0.66-42.24-1-64-5.28 0-10.56 0-16 0-7.35-0.92-12.59-2.37-19-6q0-0.49 0-1z"/>
	<path class="s21" d="m386 550c4.29 0 8.58 0 13 0q0.49 1.48 1 3c-42.9 0-85.8 0-130 0q0-0.49 0-1c38.28-0.33 76.56-0.66 116-1q0-0.49 0-1z"/>
	<path class="s22" d="m220 8c-3.01 1.71-6.05 2.61-9.38 3.49-18.08 4.85-33.27 12.77-47.94 24.35-1.68 1.16-1.68 1.16-4.68 2.16 4.02-10.48 21.81-18.06 31.19-22.63 4.73-2.07 9.56-3.67 14.5-5.18q1.04-0.33 2.12-0.67c4.87-1.42 9.12-1.72 14.19-1.52z"/>
	<path class="s23" d="m648.38 168.88c1.44-0.01 1.44-0.01 2.92-0.02 16.09 0.02 31.22 2.69 45.7 10.14 0.5 0.99 0.5 0.99 1 2-4.02-0.66-7.78-1.85-11.63-3.12-19.42-6.37-38.06-7.7-58.37-5.88q0-0.99 0-2c6.83-0.89 13.49-1.15 20.38-1.12z"/>
	<path class="s24" d="m854.17 187.4q0.9 0.3 1.83 0.6-1.57 1.14-3.18 2.31c-14.68 10.75-25.86 22.48-35.82 37.69-0.5-1.49-0.5-1.49-1-3 5.57-10.42 13.56-20.83 23-28q0.98 0 2 0 0-0.99 0-2c2.27-1.98 2.27-1.98 5.25-4.19q1.45-1.1 2.95-2.23c2.8-1.58 2.8-1.58 4.97-1.18z"/>
	<path class="s25" d="m627 172c-2.67 1.41-5.23 2.46-8.13 3.3-12.63 3.76-23.72 8.13-34.47 15.95-3.72 2.71-7.56 5.22-11.4 7.75q0-1.48 0-3c2.07-1.75 4.08-3.29 6.31-4.81q0.95-0.66 1.93-1.35c5.38-3.7 10.94-6.89 16.76-9.84q0.99-0.55 2-1.11c8.3-4.5 17.51-7.63 27-6.89z"/>
	<path class="s26" d="m155 38q0.99 0.98 2 2c-0.89 0.84-0.89 0.84-1.8 1.7-5.08 4.9-9.71 9.95-14.07 15.49-0.68 0.85-0.68 0.85-1.37 1.72-2.99 3.86-5.41 7.82-7.76 12.09q-1.33 2.23-2.69 4.44c-0.62 1.02-0.62 1.02-1.26 2.06q-0.52 0.74-1.05 1.5-0.49 0-1 0c-0.4-4.38 0.56-6.34 3.19-9.81 2.83-3.83 5.38-7.68 7.77-11.79q0.51-0.69 1.04-1.4 0.99 0 2 0 0.39-0.86 0.79-1.74c1.31-2.45 2.82-4.35 4.65-6.45q0.89-1.03 1.81-2.1c1.75-1.71 1.75-1.71 4.75-2.71q0.49-1.48 1-3 0.99 0 2 0 0-0.99 0-2z"/>
	<path class="s27" d="m1182 250c-2.04 2.2-3.9 3.64-6.58 4.97q-1.02 0.51-2.08 1.04c-1.06 0.52-1.06 0.52-2.15 1.05q-1.05 0.53-2.12 1.07c-3.95 1.95-7.84 3.59-12.07 4.87q0 0.99 0 2-2.47 1.56-5 3-0.99 0.99-2 2-1.48 0-3 0 0-0.99 0-2c7.69-6.81 16.91-11.4 26-16q1.61-0.88 3.26-1.79c2.74-1.21 2.74-1.21 5.74-0.21z"/>
	<path class="s27" d="m1228 231c-3.49 3.04-6.58 4.83-10.94 6.38-3.68 1.34-7.33 2.71-10.92 4.31q-0.94 0.42-1.9 0.85-2.68 1.2-5.34 2.42c-2.9 1.04-2.9 1.04-5.9 0.04 1.28-2.56 2.22-2.7 4.83-3.77q1.19-0.49 2.41-1 1.27-0.51 2.57-1.04 2.61-1.07 5.21-2.14c1.27-0.52 1.27-0.52 2.58-1.06q3.13-1.29 6.22-2.66 1.57-0.69 3.18-1.39 1.35-0.6 2.75-1.23c2.25-0.71 2.25-0.71 5.25 0.29z"/>
	<path class="s28" d="m112 454q0.49 0 1 0 0.08 11.23 0.11 22.47 0.01 3.81 0.04 7.63 0.03 5.51 0.05 11.01 0.01 1.68 0.03 3.41c0 7.04-0.71 13.6-2.23 20.48q-0.98-0.49-2-1c0.33-3.96 0.66-7.92 1-12q0.98 0 2 0c0-17.16 0-34.32 0-52z"/>
	<path class="s29" d="m788 358c6.08-0.27 10.83 0.5 16.56 2.5q1.15 0.39 2.34 0.8c20.36 7.22 20.36 7.22 23.1 12.7q-5.28-2.11-10.54-4.28-3.26-1.33-6.52-2.66c-1.61-0.66-1.61-0.66-3.24-1.34-7.13-2.89-14.19-5.07-21.7-6.72q0-0.49 0-1z"/>
	<path class="s30" d="m1163 168q0 0.99 0 2-4.56 2.23-9.13 4.44c-1.28 0.63-1.28 0.63-2.59 1.27-4.49 2.16-8.3 3.6-13.28 4.29q-0.49 0.99-1 2c-2 1.07-2 1.07-4.44 2.12q-1.2 0.53-2.43 1.08c-2.13 0.8-2.13 0.8-4.13 0.8q0-0.99 0-2c33.03-16 33.03-16 37-16z"/>
	<path class="s31" d="m368 90q0.99 0 2 0c2.95 7.47 5.38 14.79 6.88 22.69q0.19 1.02 0.39 2.07c0.57 3.22 0.78 5.08-0.27 8.24q0-0.99 0-2-0.99 0-2 0-0.38-1.71-0.77-3.48-3.04-13.78-6.23-27.52z"/>
	<path class="s32" d="m447 71c-4.16 9.7-16.87 16.77-26 21q-1.48-0.49-3-1c1.64-1.02 1.64-1.02 3.31-2.06q1.09-0.69 2.21-1.39 2.57-1.61 5.18-3.16c5.65-3.44 10.27-6.99 14.74-11.89 1.56-1.5 1.56-1.5 3.56-1.5z"/>
	<path class="s33" d="m1105 197c0 3 0 3-2.01 5.09-1.33 1.13-1.33 1.13-2.68 2.29-1.37 1.19-1.37 1.19-2.77 2.42-1.26 1.09-1.26 1.09-2.54 2.2-3.48 3.32-6.56 6.81-9.57 10.55-1.43 1.45-1.43 1.45-4.43 2.45q0-1.48 0-3 0.99 0 2 0 0.32-0.8 0.65-1.63c1.84-3.23 4.35-5.66 6.97-8.25q0.8-0.79 1.62-1.6c4-3.91 8.15-7.33 12.76-10.52z"/>
	<path class="s34" d="m961 179c10.92 1.7 22.53 10.07 30 18-4.63-0.51-7.1-2.36-10.69-5.25-5.97-4.68-12.09-8.34-19.31-10.75q0-0.99 0-2z"/>
	<path class="s35" d="m569 200q0.99 0.49 2 1-0.62 0.69-1.25 1.4c-6.36 7.18-12.62 14.48-17.75 22.6-1-3-1-3 0-6q0.99 0 2 0 0.99-2.46 2-5 0.99 0 2 0 0-1.48 0-3 0.99 0 2 0 0.38-0.87 0.77-1.77c1.35-2.44 2.85-4.05 4.86-5.98q0.94-0.92 1.91-1.86c0.72-0.69 0.72-0.69 1.46-1.39z"/>
	<path class="s36" d="m1193 157c-3.36 2.79-7.01 4.5-11 6.19q-0.92 0.4-1.87 0.82c-3.34 1.43-5.42 1.99-9.13 1.99q-0.49 0.99-1 2-1.48-0.49-3-1c3.76-2.42 7.64-4.25 11.73-6.02q2.13-0.92 4.23-1.9c3.5-1.62 6.18-2.43 10.04-2.08z"/>
	<path class="s37" d="m886 173q0 0.99 0 2-3.84 1.48-7.69 2.94c-1.08 0.41-1.08 0.41-2.18 0.84-3.69 1.4-7.21 2.61-11.13 3.22 1-3 1-3 4.2-4.61q2.02-0.8 4.05-1.58c1-0.41 1-0.41 2.03-0.82 3.69-1.45 6.75-2.34 10.72-1.99z"/>
	<path class="s38" d="m215 240q0.99 0.49 2 1-3.34 2.66-6.69 5.31-0.93 0.75-1.89 1.52c-9.08 7.17-9.08 7.17-12.42 7.17 1.24-3.71 2.56-4.38 5.75-6.56 1.29-0.9 1.29-0.9 2.61-1.82 2.5-1.53 4.89-2.63 7.64-3.62q0-0.99 0-2 1.48-0.49 3-1z"/>
	<path class="s39" d="m294 296c-3.73 2.23-7.72 2.87-11.94 3.63q-1.05 0.2-2.13 0.4c-3.68 0.68-7.18 1.13-10.93 0.97q0.49-0.99 1-2c7.91-2.64 15.72-3.45 24-3z"/>
	<path class="s40" d="m312 23c6.77 3.01 12.61 6.88 18 12q0.49 1.48 1 3-3-1.5-6-3 0-0.98 0-2-0.99-0.31-2-0.63c-4.07-1.86-7.69-4.35-11-7.37q0-0.98 0-2z"/>
	<path class="s41" d="m779 439c7.21 0.37 13.17 4.88 18 10q-0.99 0.99-2 2-0.6-0.58-1.21-1.17c-4.54-4.16-9.07-6.62-14.79-8.83q0-0.99 0-2z"/>
	<path class="s42" d="m873 411q1.97 0.49 4 1 0 0.99 0 2 1.97 0.49 4 1 0 1.48 0 3 1.48 0.49 3 1c1.54 1.49 1.54 1.49 3.06 3.31q0.76 0.89 1.54 1.8c1.4 1.89 2.42 3.76 3.4 5.89-5.35-3.5-9.71-7.61-14-12.31q-0.74-0.81-1.49-1.64c-3.51-3.91-3.51-3.91-3.51-5.05z"/>
	<path class="s43" d="m1009 219c5.59 1.86 7.74 8.53 10.31 13.56 2.84 6 2.84 6 1.69 9.44q-2.16-4.06-4.31-8.13-0.61-1.13-1.23-2.3-3.32-6.24-6.46-12.57z"/>
	<path class="s44" d="m813 230q0.99 0 2 0c-0.64 3.93-1.85 7.29-3.44 10.94-1.72 3.97-3.24 7.93-4.56 12.06q-0.49 0-1 0c-0.74-8.51 3.12-15.63 7-23z"/>
	<path class="s45" d="m938 172c7.51-0.7 15.29 1.65 22 5q0 0.99 0 2c-4.99-0.69-9.6-2.02-14.38-3.56q-1.09-0.35-2.23-0.71-2.69-0.86-5.39-1.73 0-0.49 0-1z"/>
	<path class="s46" d="m291 14c7.96 0.15 13.4 3.79 20 8q-0.49 0.98-1 2-4.47-1.92-8.94-3.88-1.27-0.54-2.57-1.1-1.21-0.53-2.45-1.07c-1.13-0.49-1.13-0.49-2.27-0.99-1.77-0.96-1.77-0.96-2.77-2.96z"/>
	<path class="s47" d="m1214 161q0.99 0 2 0 0.63 1.6 1.28 3.25 0.83 2.09 1.66 4.19 0.41 1.05 0.84 2.14c1.18 3.47 1.18 3.47 3.22 6.42q0.06 2.5 0 5c-2.81-3.37-4.5-7.05-6.19-11.06-0.41-0.94-0.41-0.94-0.82-1.9-1.22-2.85-1.99-4.9-1.99-8.04z"/>
	<path class="s48" d="m75 644q-0.98 0-2 0-0.49 1.48-1 3c-2.94 1.39-2.94 1.39-6.56 2.69q-1.79 0.65-3.63 1.32-1.38 0.49-2.81 0.99-0.98-0.99-2-2 3.65-1.8 7.31-3.56 1.03-0.51 2.09-1.04c5.26-2.51 5.26-2.51 8.6-1.4z"/>
	<path class="s49" d="m914 641q0.99 0.99 2 2-0.76 0.47-1.54 0.95-1.03 0.64-2.08 1.3c-1.1 0.68-1.1 0.68-2.22 1.37-1.86 1.19-3.63 2.45-5.41 3.75-2.75 1.63-2.75 1.63-4.92 1.23q-0.9-0.29-1.83-0.6 2.87-1.94 5.75-3.88 1.59-1.07 3.23-2.17c2.31-1.5 4.53-2.8 7.02-3.95z"/>
	<path class="s50" d="m49 565q0.98 0.99 2 2c-7.12 3.99-14.02 6.31-22 8 2.16-2.39 4.03-3.64 7.01-4.82q1.13-0.46 2.3-0.93c1.18-0.47 1.18-0.47 2.38-0.94q1.19-0.48 2.41-0.97 2.95-1.18 5.9-2.34z"/>
	<path class="s51" d="m1024 246c3.46 5.19 5.61 11.91 4.69 18.19q-0.34 1.38-0.69 2.81c-2.38-3.57-2.95-6.93-3.69-11.06q-0.21-1.1-0.43-2.22c-1.01-5.47-1.01-5.47 0.12-7.72z"/>
	<path class="s52" d="m821 358c6.6 4.43 12.12 9.71 17 16q0 0.99 0 2c-3.28-1.4-5.11-3.01-7.38-5.75-2.25-2.68-4.53-5.2-7.06-7.63-2.56-2.62-2.56-2.62-2.56-4.62z"/>
	<path class="s53" d="m472 65q0.99 0 2 0 1.38 2.08 2.71 4.2c2.36 3.3 5.36 6.02 8.29 8.8q-0.49 0.98-1 2-2.42-2.08-4.81-4.19-1.34-1.16-2.71-2.35c-2.37-2.35-3.91-4.53-5.48-7.46q0.49-0.49 1-1z"/>
	<path class="s54" d="m7 589q0.99 0 2 0c2.31 5.28 4.62 10.56 7 16q-1.48 0-3 0-1.22-2.87-2.44-5.75-0.67-1.59-1.37-3.23c-0.93-2.36-1.67-4.55-2.19-7.02z"/>
	<path class="s55" d="m991 197c4.38 3.54 8.2 7.19 11.74 11.58 1.22 1.56 1.22 1.56 3.26 2.42q0 0.99 0 2c-3.34-1.45-5.52-3.28-8.06-5.88q-1-1.01-2.04-2.05c-4.9-5.33-4.9-5.33-4.9-8.07z"/>
	<path class="s56" d="m561 620c0 3 0 3-1.43 4.5-4.95 3.71-9.59 5.92-15.57 7.5q0-0.99 0-2 2.37-1.23 4.75-2.44 1.32-0.67 2.67-1.37c2.22-1.02 4.19-1.71 6.58-2.19q0-0.99 0-2 1.48-0.99 3-2z"/>
	<path class="s57" d="m240 229q-3.65 2.01-7.31 4-1.03 0.57-2.09 1.16c-5.26 2.84-5.26 2.84-8.6 2.84q0-0.99 0-2c13.03-7.44 13.03-7.44 18-6z"/>
	<path class="s58" d="m462.56 49.81c3.44 1.19 3.44 1.19 5.38 4.13 1.06 3.06 1.06 3.06 1.06 5.06q-0.99 0-2 0c-1.98-3.47-1.98-3.47-4-7q-1.48 0-3 0c-1.32 2.31-2.64 4.62-4 7-0.75-1.69-0.75-1.69-1-4 2.11-3.96 3.01-4.95 7.56-5.19z"/>
	<path class="s59" d="m22 579c-4.95 2.31-9.9 4.62-15 7q-0.49-1.48-1-3 2.87-1.3 5.75-2.56 1.59-0.71 3.23-1.44c3.02-1 3.02-1 7.02 0z"/>
	<path class="s60" d="m880 606q1.48 0 3 0c1.82 2.3 1.82 2.3 3.69 5.31q0.93 1.47 1.88 2.99c1.43 2.7 1.43 2.7 1.43 5.7q-1.95-2.08-3.88-4.19-1.07-1.16-2.17-2.35c-1.93-2.44-2.96-4.54-3.95-7.46z"/>
	<path class="s61" d="m636 237c-7.4 5.05-7.4 5.05-10 6q-2.02-0.43-4-1 1.9-1.22 3.81-2.44 1.06-0.67 2.15-1.37c3.2-1.86 4.45-2.39 8.04-1.19z"/>
	<path class="s62" d="m689 627c7.31 2.11 7.31 2.11 9 5-0.31 3.69-0.31 3.69-1 7q-1.48 0.49-3 1 0-0.99 0-2 0.99 0 2 0c-0.03-2.91-0.03-2.91-1-6-2.95-1.93-2.95-1.93-6-3q0-0.99 0-2z"/>
	<path class="s63" d="m108 631c-2.07 2.07-3.74 3.01-6.38 4.25-1.15 0.56-1.15 0.56-2.33 1.14-2.29 0.61-2.29 0.61-4.58-0.28q-0.84-0.55-1.71-1.11c9.23-4.59 9.23-4.59 15-4z"/>
	<path class="s64" d="m83 553q-2.58 1.52-5.19 3c-1.44 0.84-1.44 0.84-2.92 1.69-2.94 1.33-4.71 1.59-7.89 1.31 2.24-2.5 4.39-3.87 7.44-5.25q1.13-0.53 2.31-1.08c2.53-0.75 3.79-0.54 6.25 0.33z"/>
	<path class="s65" d="m895 425c5.69 1.1 10.75 2.54 16 5q0 0.49 0 1c-6.25 0.82-10.71-2.07-16-5q0-0.49 0-1z"/>
	<path class="s66" d="m1123 189c-9.23 6.52-9.23 6.52-15 8q0-0.99 0-2c2.56-2.3 3.48-3 7-3q0-0.99 0-2c3.14-1.91 4.52-2.05 8-1z"/>
	<path class="s67" d="m1211 149q0.49 1.48 1 3c-0.99 0.5-0.99 0.5-2 1q0-0.99 0-2-1.26 0.54-2.55 1.09-1.64 0.7-3.33 1.41c-1.63 0.7-1.63 0.7-3.3 1.41-2.82 1.09-2.82 1.09-4.82 1.09q0-0.99 0-2 2.62-1.26 5.25-2.5 1.45-0.69 2.95-1.41c2.8-1.09 2.8-1.09 6.8-1.09z"/>
	<path class="s68" d="m814 365c5.8 2.15 11.01 4.32 16 8-0.99 0.5-0.99 0.5-2 1q-2.52-1.39-4.98-2.88c-3.2-1.78-6.56-2.91-10.02-4.12q0.49-0.99 1-2z"/>
	<path class="s69" d="m908 234c4.95 0 9.9 0 15 0-3 3-3 3-5.66 3.14q-1.46-0.16-2.96-0.33-1.47-0.14-2.98-0.29-1.18-0.26-2.4-0.52-0.49-0.99-1-2z"/>
	<path class="s70" d="m357 67c3.01 2.01 3.7 2.84 5.25 5.94q0.53 1.03 1.08 2.09c0.67 1.97 0.67 1.97-0.33 4.97q-1.79-2.68-3.56-5.38c-0.99-1.49-0.99-1.49-2.01-3.02q-0.7-1.28-1.43-2.6 0.49-0.98 1-2z"/>
	<path class="s71" d="m579 597q0.99 0 2 0c-0.63 3.5-2.05 5.84-4.06 8.75q-0.82 1.19-1.66 2.42-0.63 0.9-1.28 1.83-0.99-0.99-2-2 0.5-0.68 1.02-1.39c3.34-4.59 3.34-4.59 5.98-9.61z"/>
	<path class="s72" d="m710 188c4.38 0.5 6.8 1.98 10 5q0 0.99 0 2 0.99 0 2 0 0 0.99 0 2c-2.48-0.99-2.48-0.99-5-2q0-0.99 0-2-0.89-0.4-1.81-0.81c-2.16-1.17-3.55-2.38-5.19-4.19z"/>
	<path class="s47" d="m1177.69 162.38q1.14 0.3 2.31 0.62c-2 2-2 2-5.56 2.5-1.7 0.25-1.7 0.25-3.44 0.5q-0.49 0.99-1 2-1.48-0.49-3-1 1.14-0.68 2.31-1.37c5.94-3.6 5.94-3.6 8.38-3.25z"/>
	<path class="s73" d="m488 82c5.48 1.55 10.11 4.16 15 7q-1.48 0.98-3 2-2.72-1.68-5.44-3.38-1.5-0.93-3.06-1.89c-2.5-1.73-2.5-1.73-3.5-3.73z"/>
	<path class="s74" d="m337 43c3.21 1.38 5.05 2.92 7.25 5.63 0.78 0.94 0.78 0.94 1.58 1.91 0.58 0.72 0.58 0.72 1.17 1.46q-0.49 0.98-1 2-2.26-2.18-4.5-4.38-1.25-1.21-2.53-2.46c-1.97-2.16-1.97-2.16-1.97-4.16z"/>
	<path class="s75" d="m453 60q0.99 0.49 2 1c-1.85 4.07-3.66 7.01-7 10q-0.49-1.48-1-3c1.21-2.04 1.21-2.04 2.94-4.19q0.84-1.07 1.71-2.17 0.67-0.81 1.35-1.64z"/>
	<path class="s76" d="m636 616q0.99 0 2 0c-1.2 3.59-2.47 4.42-5.44 6.69q-1.2 0.93-2.43 1.88c-2.13 1.43-2.13 1.43-4.13 1.43q0-0.99 0-2c1.93-1.69 1.93-1.69 4.44-3.56 2.89-2.09 2.89-2.09 5.56-4.44z"/>
	<path class="s77" d="m830 374c3.5 0.65 5.99 2.15 9 4q1.48 0.49 3 1 0 1.48 0 3c-4.56-1.52-8.32-3.95-12-7q0-0.49 0-1z"/>
	<path class="s78" d="m933 238c4.83 0.41 6.83 2.46 10 6-0.99 0.5-0.99 0.5-2 1q0-0.99 0-2-0.83-0.18-1.69-0.38c-2.53-0.68-4.89-1.61-7.31-2.62q0.49-0.99 1-2z"/>
	<path class="s79" d="m1231 202c3 1 3 1 4.75 4.31 1.23 3.63 1.35 4.32 0.25 7.69q-1.26-2.43-2.5-4.88-0.69-1.35-1.41-2.74c-1.09-2.38-1.09-2.38-1.09-4.38z"/>
	<path class="s80" d="m123 80q1.48 0.49 3 1c-1.65 3.63-3.3 7.26-5 11-1.02-4.06-1.05-4.67 0.44-8.25q0.43-1.05 0.87-2.14 0.34-0.79 0.69-1.61z"/>
	<path class="s81" d="m872 597q0.49 0.99 1 2-0.99-0.49-2-1 0.49-0.49 1-1zm-2 2c0.75 1.56 0.75 1.56 1 4-1.13 2.5-2.52 4.67-4 7-0.75-1.56-0.75-1.56-1-4 1.13-2.5 2.52-4.67 4-7z"/>
	<path class="s82" d="m1239 224q0.99 0.49 2 1 0 0.99 0 2c-6.96 3.35-6.96 3.35-11 2q2.18-1.29 4.38-2.56c1.21-0.72 1.21-0.72 2.46-1.44q1.06-0.49 2.16-1z"/>
	<path class="s83" d="m368 90q0.99 0 2 0 0.75 2.19 1.5 4.38c0.42 1.21 0.42 1.21 0.84 2.46 0.66 2.16 0.66 2.16 0.66 4.16q-1.48-0.49-3-1c-0.66-3.3-1.32-6.6-2-10z"/>
	<path class="s84" d="m643 657q0.99 0.49 2 1 0.49 1.48 1 3 1.48 0.99 3 2 0 1.97 0 4-0.99 0-2 0c-1.65-2.97-3.3-5.94-5-9q0.49-0.49 1-1z"/>
	<path class="s85" d="m615 625q1.35 0.46 2.75 0.94c2.42 0.79 4.78 1.49 7.25 2.06-3 2-3 2-5.56 1.88-2.44-0.88-2.44-0.88-3.75-2.94q-0.34-0.96-0.69-1.94z"/>
	<path class="s86" d="m806 344c4.25 0.47 6.27 2.89 9 6q0 0.99 0 2c-4.27-1.58-6.27-4.51-9-8z"/>
	<path class="s87" d="m677 619c3.99 1.37 6.88 3.15 10 6q0 0.99 0 2-0.89-0.46-1.81-0.94c-2.28-1.16-2.28-1.16-5.19-2.06-1.69-2.56-1.69-2.56-3-5z"/>
	<path class="s88" d="m662 600c3.54 3.17 5.59 5.17 6 10-3.54-3.17-5.59-5.17-6-10z"/>
	<path class="s89" d="m499 551q0 0.99 0 2c-6.93-0.5-6.93-0.5-14-1q0-0.49 0-1 2.94-0.29 5.88-0.56c1.63-0.16 1.63-0.16 3.3-0.32 2.82-0.12 2.82-0.12 4.82 0.88z"/>
	<path class="s90" d="m749 232q1.48 0 3 0c0.99 2.64 1.98 5.28 3 8q-1.48 0-3 0c-0.99-2.64-1.98-5.28-3-8z"/>
	<path class="s91" d="m848 627q1.48 0.49 3 1-2.15 1.47-4.31 2.94-1.2 0.81-2.43 1.65c-2.26 1.41-2.26 1.41-5.26 2.41q0-0.99 0-2c1.86-1.54 1.86-1.54 4.31-3.19q1.2-0.82 2.43-1.67c1.12-0.56 1.12-0.56 2.26-1.14z"/>
	<path class="s92" d="m386 550c4.29 0 8.58 0 13 0q0.49 1.48 1 3-1.97 0-4 0 0-0.99 0-2c-3.3 0-6.6 0-10 0q0-0.49 0-1z"/>
	<path class="s93" d="m611 644q0.99 0.99 2 2c-1.98 0.99-1.98 0.99-4 2q0 0.99 0 2-1.97-0.49-4-1c1.98-1.65 3.96-3.3 6-5z"/>
	<path class="s94" d="m114 112q0.49 0 1 0c-0.33 3.63-0.66 7.26-1 11q-0.49 0-1 0-0.33-2.18-0.63-4.38-0.17-1.21-0.35-2.46-0.01-1.06-0.02-2.16 0.98-0.98 2-2z"/>
	<path class="s95" d="m841 646c3.38 1.19 5.65 2.28 8 5-4 0-4 0-6.25-1.94-1.75-2.06-1.75-2.06-1.75-3.06z"/>
	<path class="s96" d="m903 236q0 0.99 0 2c-3.47 1.49-3.47 1.49-7 3q-0.99-0.99-2-2c5.63-3 5.63-3 9-3z"/>
	<path class="s97" d="m291 14c2.64 0.33 5.28 0.66 8 1q0.49 1.48 1 3c-3.34-0.56-6.03-1.35-9-3q0-0.49 0-1z"/>
	<path class="s98" d="m32 649q0.98 0 2 0 1.01 1.93 2 3.88 0.55 1.07 1.13 2.17c0.87 1.95 0.87 1.95 0.87 3.95q-1.48-0.49-3-1c-0.95-2.07-0.95-2.07-1.69-4.56q-0.37-1.24-0.76-2.51-0.27-0.95-0.55-1.93z"/>
	<path class="s99" d="m835 643c2.94 0.81 2.94 0.81 6 2q0.49 1.48 1 3c-3.36-0.6-5.38-1.85-8-4q0.49-0.49 1-1z"/>
	<path class="s100" d="m650 596q0.99 0 2 0c-0.6 3.36-1.85 5.38-4 8q-0.99-0.49-2-1c1.32-2.31 2.64-4.62 4-7z"/>
	<path class="s101" d="m1027 257c2.57 3.85 1.83 5.59 1 10-2.57-3.85-1.83-5.59-1-10z"/>
	<path class="s102" d="m872 179c-1.25 1.5-1.25 1.5-3 3q-1.97 0-4 0 0.49-1.48 1-3c2.49-1.25 3.41-0.78 6 0z"/>
	<path class="s103" d="m1163 168q0 0.99 0 2c-5.63 3-5.63 3-9 3q0-0.99 0-2c6.75-3 6.75-3 9-3z"/>
	<path class="s104" d="m209 94q1.48 0.49 3 1c-1.18 0.93-1.18 0.93-2.38 1.88-2.59 2.02-2.59 2.02-4.62 4.12q0-1.97 0-4 0.99 0 2 0 0-0.98 0-2 0.99-0.49 2-1z"/>
	<path class="s105" d="m790 444c2.88 1.29 4.87 2.66 7 5q-0.99 0.99-2 2c-5-5.88-5-5.88-5-7z"/>
	<path class="s106" d="m1072 231q1.48 0 3 0c-1.25 3.65-1.67 4.78-5 7 0-3.11 0.54-4.35 2-7z"/>
	<path class="s107" d="m740 216c3 1 3 1 4.75 3.44 0.62 1.27 0.62 1.27 1.25 2.56q-0.49 0.99-1 2c-5-5.75-5-5.75-5-8z"/>
	<path class="s108" d="m725 200q1.97 0.49 4 1 0 0.99 0 2 1.48 0.49 3 1-0.49 1.48-1 3c-1.98-2.31-3.96-4.62-6-7z"/>
</svg>